<?xml version="1.0" encoding="UTF-8" standalone="no"?>
<svg width="59px" height="16px" viewBox="0 0 59 16" version="1.1" xmlns="http://www.w3.org/2000/svg" xmlns:xlink="http://www.w3.org/1999/xlink" xmlns:sketch="http://www.bohemiancoding.com/sketch/ns">
    <!-- Generator: Sketch 3.4.4 (17249) - http://www.bohemiancoding.com/sketch -->
    <title>logo-text</title>
    <desc>Created with Sketch.</desc>
    <defs></defs>
    <g id="Page-1" stroke="none" stroke-width="1" fill="none" fill-rule="evenodd" sketch:type="MSPage">
        <g id="logo-text" sketch:type="MSArtboardGroup">
            <g id="logo" sketch:type="MSLayerGroup" transform="translate(5.000000, 0.000000)">
                <path d="M7.91339859,6.76259617 L7.91339859,6.62905116 C7.99910276,6.58914116 8.12497276,6.55230116 8.2910086,6.51853116 L8.2910086,3.78776609 C8.17127859,3.76934609 8.04540859,3.73097109 7.91339859,3.67264109 L7.91339859,3.53909609 L9.07846362,3.53909609 L9.07846362,3.67264109 C8.98917778,3.71255109 8.87405278,3.75092609 8.73283277,3.78776609 L8.73283277,6.52313616 L10.1099836,6.52313616 L10.1099836,3.78776609 C10.0544678,3.77548609 9.99767281,3.76013609 9.93959864,3.74171609 C9.8810128,3.72329609 9.8226828,3.70027109 9.7643528,3.67264109 L9.7643528,3.53909609 L10.9294178,3.53909609 L10.9294178,3.67264109 C10.8068737,3.72483109 10.6807478,3.76320609 10.5518078,3.78776609 L10.5518078,6.52313616 L11.0816387,6.52313616 C11.0816387,6.58453616 11.0783128,6.65591367 11.0721728,6.73726867 C11.0660328,6.81862367 11.058102,6.90304867 11.048892,6.99054367 C11.039682,7.07803868 11.0297045,7.16220784 11.0187037,7.24381868 C11.0079587,7.32517368 10.9961903,7.39655118 10.9836545,7.45795119 L10.8672503,7.45795119 L10.6671887,6.76259617 L7.91339859,6.76259617 Z" id="Fill-1" fill="#000000" sketch:type="MSShapeGroup"></path>
                <path d="M12.4077252,4.60750728 C12.2324794,4.60750728 12.0991902,4.66660478 12.0070902,4.78454395 C11.9147344,4.90299479 11.8594744,5.11098729 11.8410544,5.4087773 L12.8544102,5.4087773 C12.8574802,5.38089147 12.8597827,5.3542848 12.8610619,5.32793397 C12.8625969,5.3020948 12.8633644,5.2767673 12.8633644,5.2522073 C12.8633644,5.05572729 12.8267802,4.89915729 12.7531002,4.78249729 C12.6794202,4.66583728 12.5640394,4.60750728 12.4077252,4.60750728 L12.4077252,4.60750728 Z M13.2504402,6.44029733 C13.2256244,6.49248733 13.1875052,6.54160733 13.1353152,6.58765733 C13.0831252,6.63370733 13.0230044,6.67361733 12.9557202,6.70738733 C12.8881802,6.74115733 12.8145002,6.767764 12.7344244,6.787719 C12.6548602,6.80792984 12.5732494,6.81790734 12.4903594,6.81790734 C12.3092294,6.81790734 12.1495894,6.789254 12.0114394,6.73271483 C11.8735452,6.67591983 11.7584202,6.59456483 11.6663202,6.48864983 C11.5739643,6.38247899 11.5043777,6.25584149 11.4565368,6.10873732 C11.4092077,5.96137731 11.3854152,5.79559731 11.3854152,5.61139731 C11.3854152,5.2184373 11.4757243,4.91911229 11.6568543,4.71342228 C11.8379844,4.50773228 12.0943294,4.40488728 12.4258894,4.40488728 C12.5333394,4.40488728 12.6392544,4.41946978 12.7436344,4.44863478 C12.8482702,4.47779978 12.9411377,4.52615228 13.0222369,4.59369228 C13.1038477,4.66123228 13.1698527,4.75102978 13.2205077,4.86308479 C13.2711627,4.97513979 13.2964902,5.11380146 13.2964902,5.2798373 C13.2964902,5.3320273 13.2941877,5.3849848 13.2893269,5.4387098 C13.2849777,5.4924348 13.2765352,5.5499973 13.2642552,5.61139731 L11.8272394,5.61139731 C11.8272394,5.74033731 11.8436127,5.86057898 11.8758477,5.97288982 C11.9080827,6.08494482 11.9561794,6.18241732 12.0206494,6.26505149 C12.0851194,6.34819732 12.1667302,6.41343483 12.2647144,6.46101983 C12.3629544,6.50860483 12.4780794,6.5321415 12.6103452,6.5321415 C12.7177952,6.5321415 12.8267802,6.51704733 12.9370444,6.48634733 C13.0478202,6.45564733 13.1304544,6.41573733 13.1859702,6.36661732 L13.2504402,6.44029733 Z" id="Fill-3" fill="#000000" sketch:type="MSShapeGroup"></path>
                <path d="M14.7286964,6.76259617 L13.7386214,6.76259617 L13.7386214,6.64747117 C13.7816014,6.62291116 13.8289306,6.60218866 13.8811206,6.58530366 C13.9335664,6.56841866 13.9872914,6.55230116 14.0422956,6.53695116 L14.0422956,4.69034612 C13.9872914,4.67499612 13.9335664,4.65887862 13.8811206,4.64199362 C13.8289306,4.62536445 13.7816014,4.60438611 13.7386214,4.57982611 L13.7386214,4.46009611 L14.7286964,4.46009611 L14.7286964,4.57982611 C14.6580864,4.62280611 14.5675214,4.65964612 14.4570014,4.69034612 L14.4570014,5.49622114 L15.4793114,5.49622114 L15.4793114,4.69034612 C15.3718614,4.67192612 15.2795056,4.63508612 15.2030114,4.57982611 L15.2030114,4.46009611 L16.1976915,4.46009611 L16.1976915,4.57982611 C16.1148015,4.63201612 16.0132356,4.66885612 15.8937615,4.69034612 L15.8937615,6.53695116 C15.9490215,6.54923116 16.0024906,6.56304616 16.0549365,6.57839616 C16.1071265,6.59374616 16.1544556,6.617027 16.1976915,6.64747117 L16.1976915,6.76259617 L15.2030114,6.76259617 L15.2030114,6.64747117 C15.2795056,6.59221116 15.3718614,6.55537116 15.4793114,6.53695116 L15.4793114,5.69884114 L14.4570014,5.69884114 L14.4570014,6.53695116 C14.5184014,6.54923116 14.5705914,6.56458116 14.6135714,6.58300116 C14.6565514,6.60142116 14.6946706,6.62291116 14.7286964,6.64747117 L14.7286964,6.76259617 Z" id="Fill-5" fill="#000000" sketch:type="MSShapeGroup"></path>
                <path d="M18.0765315,6.76259617 L17.0542215,6.76259617 L17.0542215,6.64747117 C17.1493915,6.59835116 17.2504457,6.56151116 17.3581515,6.53695116 L17.3581515,4.66271612 L16.9206765,4.66271612 L16.7231731,5.21531613 L16.6062573,5.21531613 C16.5911631,5.08356196 16.579139,4.95359862 16.5701848,4.82619362 C16.5612306,4.69904445 16.5553465,4.57675611 16.5522765,4.46009611 L18.5784765,4.46009611 C18.5754065,4.57061611 18.5702899,4.69111362 18.5626149,4.82158862 C18.5551957,4.95206362 18.542404,5.08356196 18.5244957,5.21531613 L18.4078357,5.21531613 L18.2100765,4.66271612 L17.7728573,4.66271612 L17.7728573,6.53695116 C17.9168915,6.57379116 18.0182015,6.61063116 18.0765315,6.64747117 L18.0765315,6.76259617 Z" id="Fill-7" fill="#000000" sketch:type="MSShapeGroup"></path>
                <path d="M20.1624175,4.69044845 C20.0119875,4.69044845 19.8922575,4.73803345 19.8032275,4.83320345 C19.7141975,4.92837346 19.6512625,5.05859263 19.6144225,5.22462846 L19.6144225,6.5140285 C19.6696825,6.5477985 19.73185,6.57287016 19.800925,6.590011 C19.87,6.60664016 19.9597975,6.61508266 20.0705733,6.61508266 C20.1716275,6.61508266 20.2632158,6.5892435 20.344315,6.5370535 C20.42567,6.48486349 20.494745,6.41118349 20.55154,6.31601349 C20.608335,6.22058765 20.6520825,6.10955599 20.6827825,5.98215098 C20.7134825,5.85474598 20.7288325,5.71429348 20.7288325,5.56053764 C20.7288325,5.43492347 20.718855,5.31903097 20.6991558,5.21311596 C20.678945,5.10720096 20.64671,5.01510096 20.602195,4.93681596 C20.55768,4.85827512 20.49935,4.79789845 20.427205,4.75491845 C20.35506,4.71193845 20.2667975,4.69044845 20.1624175,4.69044845 L20.1624175,4.69044845 Z M19.9183525,7.68344269 L18.8960424,7.68344269 L18.8960424,7.56857352 C19.0004224,7.51945352 19.1017324,7.48235769 19.1999725,7.45779769 L19.1999725,4.72728845 L18.8960424,4.69044845 L18.8960424,4.57046261 C18.9945383,4.52748261 19.0948249,4.49320094 19.19767,4.46710594 C19.300515,4.44075511 19.4010575,4.42003261 19.4992975,4.40493844 L19.6144225,4.40493844 L19.6144225,4.92044262 L19.6190275,4.92044262 C19.6804275,4.76412845 19.7663875,4.63902595 19.8769075,4.54539095 C19.9874275,4.45150011 20.1317175,4.40493844 20.3097775,4.40493844 C20.5832633,4.40493844 20.7948375,4.49524761 20.9455233,4.67637762 C21.0956975,4.85750762 21.1709125,5.15248346 21.1709125,5.56053764 C21.1709125,5.75394764 21.145585,5.92919348 21.0951858,6.08550765 C21.044275,6.24207766 20.97213,6.37434349 20.878495,6.48179349 C20.78486,6.5892435 20.67127,6.6721335 20.537725,6.7304635 C20.40418,6.78853767 20.2560525,6.81770267 20.0933425,6.81770267 C19.9797525,6.81770267 19.8907225,6.811051 19.8265083,6.79698017 C19.7620383,6.783421 19.6911725,6.7596285 19.6144225,6.7258585 L19.6144225,7.45779769 C19.6635425,7.46419352 19.7126625,7.47570602 19.7620383,7.49233519 C19.8109025,7.50947602 19.8630925,7.53454769 19.9183525,7.56857352 L19.9183525,7.68344269 Z" id="Fill-9" fill="#000000" sketch:type="MSShapeGroup"></path>
                <path d="M23.979937,4.69044845 C23.829507,4.69044845 23.709777,4.73803345 23.620747,4.83320345 C23.531717,4.92837346 23.468782,5.05859263 23.431942,5.22462846 L23.431942,6.5140285 C23.487202,6.5477985 23.5493695,6.57287016 23.6184445,6.590011 C23.6875195,6.60664016 23.777317,6.61508266 23.8880928,6.61508266 C23.989147,6.61508266 24.0807353,6.5892435 24.1618345,6.5370535 C24.2431895,6.48486349 24.3122645,6.41118349 24.3690595,6.31601349 C24.4258545,6.22058765 24.469602,6.10955599 24.500302,5.98215098 C24.531002,5.85474598 24.546352,5.71429348 24.546352,5.56053764 C24.546352,5.43492347 24.5363745,5.31903097 24.5166753,5.21311596 C24.4964645,5.10720096 24.4642295,5.01510096 24.4197145,4.93681596 C24.3751995,4.85827512 24.3168695,4.79789845 24.2447245,4.75491845 C24.1725795,4.71193845 24.084317,4.69044845 23.979937,4.69044845 L23.979937,4.69044845 Z M23.735872,7.68344269 L22.713562,7.68344269 L22.713562,7.56857352 C22.817942,7.51945352 22.919252,7.48235769 23.017492,7.45779769 L23.017492,4.72728845 L22.713562,4.69044845 L22.713562,4.57046261 C22.8120578,4.52748261 22.9123445,4.49320094 23.0151895,4.46710594 C23.1180345,4.44075511 23.218577,4.42003261 23.316817,4.40493844 L23.431942,4.40493844 L23.431942,4.92044262 L23.436547,4.92044262 C23.497947,4.76412845 23.583907,4.63902595 23.694427,4.54539095 C23.804947,4.45150011 23.949237,4.40493844 24.127297,4.40493844 C24.4007828,4.40493844 24.612357,4.49524761 24.7630428,4.67637762 C24.913217,4.85750762 24.988432,5.15248346 24.988432,5.56053764 C24.988432,5.75394764 24.9631045,5.92919348 24.9127053,6.08550765 C24.8617945,6.24207766 24.7896495,6.37434349 24.6960145,6.48179349 C24.6023795,6.5892435 24.4887895,6.6721335 24.3552445,6.7304635 C24.2216995,6.78853767 24.073572,6.81770267 23.910862,6.81770267 C23.797272,6.81770267 23.708242,6.811051 23.6440278,6.79698017 C23.5795578,6.783421 23.508692,6.7596285 23.431942,6.7258585 L23.431942,7.45779769 C23.481062,7.46419352 23.530182,7.47570602 23.5795578,7.49233519 C23.628422,7.50947602 23.680612,7.53454769 23.735872,7.56857352 L23.735872,7.68344269 Z" id="Fill-11" fill="#000000" sketch:type="MSShapeGroup"></path>
                <path d="M26.4345811,4.60750728 C26.2593353,4.60750728 26.1260461,4.66660478 26.0339461,4.78454395 C25.9415903,4.90299479 25.8863303,5.11098729 25.8679103,5.4087773 L26.8812661,5.4087773 C26.8843361,5.38089147 26.8866386,5.3542848 26.8879178,5.32793397 C26.8894528,5.3020948 26.8902203,5.2767673 26.8902203,5.2522073 C26.8902203,5.05572729 26.8536361,4.89915729 26.7799561,4.78249729 C26.7062761,4.66583728 26.5908953,4.60750728 26.4345811,4.60750728 L26.4345811,4.60750728 Z M27.2772962,6.44029733 C27.2524803,6.49248733 27.2143611,6.54160733 27.1621711,6.58765733 C27.1099811,6.63370733 27.0498603,6.67361733 26.9825761,6.70738733 C26.9150361,6.74115733 26.8413561,6.767764 26.7612803,6.787719 C26.6817161,6.80792984 26.6001053,6.81790734 26.5172153,6.81790734 C26.3360853,6.81790734 26.1764453,6.789254 26.0382953,6.73271483 C25.9004011,6.67591983 25.7852761,6.59456483 25.6931761,6.48864983 C25.6008203,6.38247899 25.5312336,6.25584149 25.4833928,6.10873732 C25.4360636,5.96137731 25.4122711,5.79559731 25.4122711,5.61139731 C25.4122711,5.2184373 25.5025803,4.91911229 25.6837103,4.71342228 C25.8648403,4.50773228 26.1211853,4.40488728 26.4527453,4.40488728 C26.5601953,4.40488728 26.6661103,4.41946978 26.7704903,4.44863478 C26.8751261,4.47779978 26.9679936,4.52615228 27.0490928,4.59369228 C27.1307036,4.66123228 27.1967086,4.75102978 27.2473637,4.86308479 C27.2980187,4.97513979 27.3233462,5.11380146 27.3233462,5.2798373 C27.3233462,5.3320273 27.3210437,5.3849848 27.3161828,5.4387098 C27.3118337,5.4924348 27.3033912,5.5499973 27.2911112,5.61139731 L25.8540953,5.61139731 C25.8540953,5.74033731 25.8704686,5.86057898 25.9027036,5.97288982 C25.9349386,6.08494482 25.9830353,6.18241732 26.0475053,6.26505149 C26.1119753,6.34819732 26.1935861,6.41343483 26.2915703,6.46101983 C26.3898103,6.50860483 26.5049353,6.5321415 26.6372011,6.5321415 C26.7446511,6.5321415 26.8536361,6.51704733 26.9639003,6.48634733 C27.0746761,6.45564733 27.1573103,6.41573733 27.2128261,6.36661732 L27.2772962,6.44029733 Z" id="Fill-13" fill="#000000" sketch:type="MSShapeGroup"></path>
                <path d="M28.5849371,6.53224383 C28.6616871,6.53224383 28.7289713,6.51689383 28.7875571,6.48619383 C28.8458871,6.45549383 28.8950071,6.41890966 28.9349171,6.37592966 C28.9745713,6.33294966 29.0068063,6.28920216 29.0316221,6.24443132 C29.0561821,6.19991632 29.0730671,6.16256465 29.0820213,6.13186465 L29.0820213,5.64808381 C28.9042171,5.64808381 28.7583921,5.65729381 28.6445463,5.67571381 C28.5312121,5.69438964 28.4419263,5.72355464 28.3774563,5.76320881 C28.3132421,5.80311881 28.2687271,5.85326215 28.2441671,5.91287131 C28.2193513,5.97273632 28.2070713,6.04129965 28.2070713,6.11804965 C28.2070713,6.24980382 28.2408413,6.35213716 28.3086371,6.42402633 C28.3761771,6.49617133 28.4682771,6.53224383 28.5849371,6.53224383 M29.4737021,6.15923882 C29.4737021,6.22703465 29.4749813,6.28510882 29.4783071,6.33448466 C29.4813771,6.38360466 29.4844471,6.43553883 29.4872613,6.49105466 L29.8052621,6.53710466 L29.8052621,6.63355383 C29.7285121,6.67371967 29.6433196,6.70876883 29.5496846,6.73972467 C29.4557938,6.77042467 29.3662521,6.79344967 29.2802921,6.80854384 L29.1651671,6.80854384 C29.1342113,6.73818967 29.1157913,6.66067217 29.1099071,6.57624716 C29.1035113,6.49182216 29.0991621,6.39895466 29.0960921,6.29738882 L29.0730671,6.29738882 C29.0605313,6.35878882 29.0369946,6.42095633 29.0016896,6.48414716 C28.9661288,6.54708216 28.9203346,6.60285383 28.8635396,6.65222967 C28.8064888,6.70109383 28.7397163,6.74100383 28.6632221,6.77195967 C28.5864721,6.80265967 28.4989771,6.81775384 28.4004813,6.81775384 C28.2134671,6.81775384 28.0604788,6.76121467 27.9422838,6.64736883 C27.8240887,6.53403466 27.7652471,6.38513966 27.7652471,6.20068382 C27.7652471,6.05946382 27.7933887,5.94357131 27.8504396,5.85326215 C27.9072346,5.76244131 27.9908921,5.69131964 28.1011563,5.63912964 C28.2119321,5.58693964 28.3482913,5.5490763 28.5112571,5.5260513 C28.6739671,5.50328214 28.8627721,5.4853738 29.0776721,5.4730938 C29.0899521,5.34133963 29.0935338,5.2221213 29.0891846,5.11646213 C29.0845796,5.01054712 29.0676946,4.91972629 29.0382738,4.84451129 C29.0091088,4.76929629 28.9661288,4.71122212 28.9095896,4.66977712 C28.8527946,4.62833212 28.7783471,4.60760961 28.6862471,4.60760961 C28.6432671,4.60760961 28.5946588,4.60965628 28.5411896,4.61426128 C28.4874646,4.61886628 28.4345071,4.63191378 28.3823171,4.65340378 L28.1656263,5.2060038 L28.0461521,5.2060038 C28.0151963,5.11390379 27.9885896,5.01898962 27.9655646,4.92049379 C27.9422838,4.82225379 27.9279571,4.72554878 27.9218171,4.63037878 C28.0382213,4.55976878 28.1681846,4.50450878 28.3109396,4.46459878 C28.4534388,4.42494461 28.6123113,4.40498961 28.7875571,4.40498961 C28.9438713,4.40498961 29.0692296,4.42699128 29.1628646,4.47150628 C29.2564996,4.51602128 29.3276213,4.57383961 29.3769971,4.64419378 C29.4258613,4.71480378 29.4580963,4.79308879 29.4737021,4.87904879 C29.4887963,4.96500879 29.4964713,5.05122463 29.4964713,5.13718463 C29.4964713,5.32138463 29.4928896,5.4984213 29.4852146,5.66880631 C29.4772838,5.83919131 29.4737021,6.00292465 29.4737021,6.15923882" id="Fill-15" fill="#000000" sketch:type="MSShapeGroup"></path>
                <path d="M30.5786207,5.55861889 C30.5786207,5.75177306 30.5962732,5.9147389 30.6315782,6.04802807 C30.6668832,6.18131724 30.7152357,6.28979057 30.7766357,6.37421558 C30.8382916,6.45838474 30.9094132,6.51952891 30.9907682,6.55764808 C31.0721232,6.59627891 31.1573157,6.61521058 31.2463458,6.61521058 C31.4305458,6.61521058 31.5694633,6.53257641 31.6630983,6.36705224 C31.7567333,6.20203974 31.8035508,5.9661614 31.8035508,5.65992889 C31.8035508,5.34755638 31.7439416,5.11909721 31.6239558,4.97531887 C31.5042258,4.8312847 31.3387016,4.75939553 31.1268716,4.75939553 C31.0467957,4.75939553 30.9600682,4.78395554 30.8664332,4.8328197 C30.7727982,4.8819397 30.6937457,4.94768887 30.6292757,5.03057888 C30.6139257,5.10681721 30.6016457,5.18740471 30.5926916,5.27157388 C30.5834816,5.35574305 30.5786207,5.45142472 30.5786207,5.55861889 M30.1460066,5.55606055 C30.1460066,5.16310054 30.1782416,4.83384304 30.2429674,4.56828803 C30.3071816,4.30273302 30.4049099,4.08936802 30.5358966,3.92819301 C30.6666274,3.76701801 30.8318957,3.65266051 31.0319574,3.58512051 C31.2320191,3.5175805 31.4658508,3.4838105 31.7337083,3.4838105 L32.0335449,3.2535605 L32.1535308,3.2535605 C32.1507166,3.3088205 32.1443208,3.367918 32.1351108,3.430853 C32.1259008,3.493788 32.1143883,3.553653 32.1005733,3.61044801 C32.0867583,3.66724301 32.0726874,3.71713051 32.0588724,3.76011051 C32.0450574,3.80334634 32.0335449,3.83379051 32.0243349,3.85221051 C31.7411274,3.85221051 31.5008999,3.86602551 31.3041641,3.89365551 C31.1069166,3.92128551 30.9439507,3.97808052 30.8147549,4.06404052 C30.6853032,4.15000052 30.5875749,4.27433552 30.5213141,4.43704553 C30.4553091,4.59975553 30.4115616,4.81465554 30.3900716,5.08174554 L30.4130966,5.08174554 C30.4499366,5.00192554 30.4998241,4.92517554 30.5630149,4.85149554 C30.6262057,4.77781554 30.6983507,4.71334553 30.7799616,4.65808553 C30.8613166,4.60282553 30.9482999,4.55831053 31.0409116,4.52454053 C31.1330116,4.49077053 31.2269024,4.47388553 31.3223283,4.47388553 C31.9501433,4.47388553 32.2640508,4.84996054 32.2640508,5.60211056 C32.2640508,5.78017056 32.2394908,5.94364806 32.1903708,6.09254307 C32.1409949,6.24143807 32.0688499,6.36961057 31.9734241,6.47706058 C31.8779983,6.58451058 31.7626174,6.66816808 31.6272816,6.72803308 C31.4916899,6.78789809 31.3397249,6.81783059 31.1703632,6.81783059 C31.0166074,6.81783059 30.8764107,6.78943309 30.7502849,6.73263808 C30.6244149,6.67584308 30.5164532,6.59295308 30.4271674,6.48396808 C30.3381374,6.37498308 30.2688066,6.24297307 30.2196866,6.08793807 C30.1703107,5.93290306 30.1460066,5.75586639 30.1460066,5.55606055" id="Fill-17" fill="#000000" sketch:type="MSShapeGroup"></path>
                <path d="M32.6740237,4.46009611 L33.6500279,4.46009611 L33.6500279,4.57982611 C33.6165137,4.59824611 33.5771154,4.61666611 33.5326004,4.63508612 C33.4883412,4.65350612 33.4353837,4.67192612 33.3739837,4.69034612 L33.3739837,5.95211615 L33.3233287,6.38038116 L33.3463537,6.38038116 L33.5259487,6.03500615 L34.5114187,4.46009611 L35.1330938,4.46009611 L35.1330938,4.57982611 C35.0348538,4.63508612 34.9335438,4.67192612 34.8291638,4.69034612 L34.8291638,6.53695116 C34.8872379,6.55230116 34.9424979,6.56841866 34.9949438,6.58530366 C35.0468779,6.60218866 35.0931838,6.62291116 35.1330938,6.64747117 L35.1330938,6.76259617 L34.1568337,6.76259617 L34.1568337,6.64747117 C34.2427937,6.59835116 34.3346379,6.56151116 34.4331337,6.53695116 L34.4331337,5.21992113 L34.4791837,4.85612612 L34.4561587,4.85612612 L34.2811687,5.20150113 L33.3049087,6.76259617 L32.6740237,6.76259617 L32.6740237,6.64747117 C32.7262137,6.62291116 32.7766129,6.60218866 32.8259887,6.58530366 C32.8751087,6.56841866 32.9255079,6.55230116 32.9776979,6.53695116 L32.9776979,4.69034612 C32.8582237,4.67192612 32.7569137,4.63508612 32.6740237,4.57982611 L32.6740237,4.46009611 Z" id="Fill-19" fill="#000000" sketch:type="MSShapeGroup"></path>
                <path d="M35.8329514,6.36659174 C35.8759314,6.29291174 35.9143064,6.19467174 35.9480765,6.07187173 C35.9818465,5.94907173 36.010244,5.81399173 36.033269,5.66663172 C36.056294,5.51901589 36.0739465,5.36500422 36.0862265,5.20382921 C36.0985065,5.04265421 36.1046465,4.8868517 36.1046465,4.7364217 C36.0432465,4.7180017 35.9874748,4.6949767 35.9365639,4.66709087 C35.8859089,4.6397167 35.8390914,4.6105517 35.7961114,4.5798517 L35.7961114,4.46012169 L37.6798123,4.46012169 L37.6798123,4.5798517 C37.5813165,4.63485587 37.4800065,4.6719517 37.3756265,4.6903717 L37.3756265,6.53697675 C37.4400965,6.55232675 37.4968915,6.56921175 37.5460115,6.58763175 C37.5953873,6.60605175 37.6396465,6.62600675 37.6798123,6.64749675 L37.6798123,6.76262175 L36.6897373,6.76262175 L36.6897373,6.64749675 C36.7634173,6.59530675 36.8537265,6.55846675 36.9611765,6.53697675 L36.9611765,4.6627417 L36.3533165,4.6627417 C36.3502465,4.8254517 36.3410365,4.99813921 36.3259423,5.18080421 C36.3103365,5.36346922 36.2873115,5.54306422 36.2566115,5.71958923 C36.2259115,5.89611423 36.1860015,6.06189423 36.1368815,6.21692924 C36.0877615,6.37196424 36.0281523,6.50167174 35.9572865,6.60605175 C35.8992123,6.69508175 35.8362773,6.75724925 35.7684814,6.79255425 C35.7009414,6.82785925 35.6380064,6.83937175 35.5799323,6.82709175 C35.5336264,6.77490175 35.4898789,6.70659425 35.4484339,6.62216925 C35.4072448,6.53774425 35.3831964,6.46022674 35.3773123,6.38961674 L35.4417823,6.27449174 L35.8329514,6.36659174 Z" id="Fill-21" fill="#000000" sketch:type="MSShapeGroup"></path>
                <path d="M38.0850012,4.46009611 L39.0610054,4.46009611 L39.0610054,4.57982611 C39.0274912,4.59824611 38.9880929,4.61666611 38.9435779,4.63508612 C38.8993187,4.65350612 38.8463612,4.67192612 38.7849612,4.69034612 L38.7849612,5.95211615 L38.7343062,6.38038116 L38.7573312,6.38038116 L38.9369262,6.03500615 L39.9223962,4.46009611 L40.5440712,4.46009611 L40.5440712,4.57982611 C40.4458312,4.63508612 40.3445212,4.67192612 40.2401412,4.69034612 L40.2401412,6.53695116 C40.2982154,6.55230116 40.3534754,6.56841866 40.4059212,6.58530366 C40.4578554,6.60218866 40.5041612,6.62291116 40.5440712,6.64747117 L40.5440712,6.76259617 L39.5678112,6.76259617 L39.5678112,6.64747117 C39.6537712,6.59835116 39.7456154,6.56151116 39.8441112,6.53695116 L39.8441112,5.21992113 L39.8901612,4.85612612 L39.8671362,4.85612612 L39.6921462,5.20150113 L38.7158862,6.76259617 L38.0850012,6.76259617 L38.0850012,6.64747117 C38.1371912,6.62291116 38.1875903,6.60218866 38.2369662,6.58530366 C38.2860862,6.56841866 38.3364853,6.55230116 38.3886753,6.53695116 L38.3886753,4.69034612 C38.2692012,4.67192612 38.1678912,4.63508612 38.0850012,4.57982611 L38.0850012,4.46009611 Z" id="Fill-23" fill="#000000" sketch:type="MSShapeGroup"></path>
                <path d="M42.4226554,6.76259617 L41.4003454,6.76259617 L41.4003454,6.64747117 C41.4955154,6.59835116 41.5965696,6.56151116 41.7042754,6.53695116 L41.7042754,4.66271612 L41.2668004,4.66271612 L41.0692971,5.21531613 L40.9523812,5.21531613 C40.9372871,5.08356196 40.9252629,4.95359862 40.9163087,4.82619362 C40.9073546,4.69904445 40.9014704,4.57675611 40.8984004,4.46009611 L42.9246005,4.46009611 C42.9215305,4.57061611 42.9164138,4.69111362 42.9087388,4.82158862 C42.9013196,4.95206362 42.888528,5.08356196 42.8706196,5.21531613 L42.7539596,5.21531613 L42.5562004,4.66271612 L42.1189813,4.66271612 L42.1189813,6.53695116 C42.2630154,6.57379116 42.3643254,6.61063116 42.4226554,6.64747117 L42.4226554,6.76259617 Z" id="Fill-25" fill="#000000" sketch:type="MSShapeGroup"></path>
                <path d="M44.0990802,6.53224383 C44.1758302,6.53224383 44.2431143,6.51689383 44.3017002,6.48619383 C44.3600302,6.45549383 44.4091502,6.41890966 44.4490602,6.37592966 C44.4887143,6.33294966 44.5209493,6.28920216 44.5457652,6.24443132 C44.5703252,6.19991632 44.5872102,6.16256465 44.5961643,6.13186465 L44.5961643,5.64808381 C44.4183602,5.64808381 44.2725352,5.65729381 44.1586893,5.67571381 C44.0453552,5.69438964 43.9560693,5.72355464 43.8915993,5.76320881 C43.8273851,5.80311881 43.7828701,5.85326215 43.7583101,5.91287131 C43.7334943,5.97273632 43.7212143,6.04129965 43.7212143,6.11804965 C43.7212143,6.24980382 43.7549843,6.35213716 43.8227801,6.42402633 C43.8903201,6.49617133 43.9824201,6.53224383 44.0990802,6.53224383 M44.9878452,6.15923882 C44.9878452,6.22703465 44.9891243,6.28510882 44.9924502,6.33448466 C44.9955202,6.38360466 44.9985902,6.43553883 45.0014043,6.49105466 L45.3194052,6.53710466 L45.3194052,6.63355383 C45.2426552,6.67371967 45.1574627,6.70876883 45.0638277,6.73972467 C44.9699368,6.77042467 44.8803952,6.79344967 44.7944352,6.80854384 L44.6793102,6.80854384 C44.6483543,6.73818967 44.6299343,6.66067217 44.6240502,6.57624716 C44.6176543,6.49182216 44.6133052,6.39895466 44.6102352,6.29738882 L44.5872102,6.29738882 C44.5746743,6.35878882 44.5511377,6.42095633 44.5158327,6.48414716 C44.4802718,6.54708216 44.4344777,6.60285383 44.3776827,6.65222967 C44.3206318,6.70109383 44.2538593,6.74100383 44.1773652,6.77195967 C44.1006152,6.80265967 44.0131202,6.81775384 43.9146243,6.81775384 C43.7276101,6.81775384 43.5746218,6.76121467 43.4564268,6.64736883 C43.3382318,6.53403466 43.2793901,6.38513966 43.2793901,6.20068382 C43.2793901,6.05946382 43.3075318,5.94357131 43.3645826,5.85326215 C43.4213776,5.76244131 43.5050351,5.69131964 43.6152993,5.63912964 C43.7260751,5.58693964 43.8624343,5.5490763 44.0254002,5.5260513 C44.1881102,5.50328214 44.3769152,5.4853738 44.5918152,5.4730938 C44.6040952,5.34133963 44.6076768,5.2221213 44.6033277,5.11646213 C44.5987227,5.01054712 44.5818377,4.91972629 44.5524168,4.84451129 C44.5232518,4.76929629 44.4802718,4.71122212 44.4237327,4.66977712 C44.3669377,4.62833212 44.2924902,4.60760961 44.2003902,4.60760961 C44.1574102,4.60760961 44.1088018,4.60965628 44.0553327,4.61426128 C44.0016077,4.61886628 43.9486501,4.63191378 43.8964601,4.65340378 L43.6797693,5.2060038 L43.5602951,5.2060038 C43.5293393,5.11390379 43.5027326,5.01898962 43.4797076,4.92049379 C43.4564268,4.82225379 43.4421001,4.72554878 43.4359601,4.63037878 C43.5523643,4.55976878 43.6823276,4.50450878 43.8250826,4.46459878 C43.9675818,4.42494461 44.1264543,4.40498961 44.3017002,4.40498961 C44.4580143,4.40498961 44.5833727,4.42699128 44.6770077,4.47150628 C44.7706427,4.51602128 44.8417643,4.57383961 44.8911402,4.64419378 C44.9400043,4.71480378 44.9722393,4.79308879 44.9878452,4.87904879 C45.0029393,4.96500879 45.0106143,5.05122463 45.0106143,5.13718463 C45.0106143,5.32138463 45.0070327,5.4984213 44.9993577,5.66880631 C44.9914268,5.83919131 44.9878452,6.00292465 44.9878452,6.15923882" id="Fill-27" fill="#000000" sketch:type="MSShapeGroup"></path>
                <path d="M45.6508117,6.76259617 L45.6508117,6.64747117 C45.7337017,6.59835116 45.8350117,6.56151116 45.9544859,6.53695116 L45.9544859,4.69034612 C45.8378259,4.67192612 45.7367717,4.63508612 45.6508117,4.57982611 L45.6508117,4.46009611 L46.6408867,4.46009611 L46.6408867,4.57982611 C46.5702767,4.62280611 46.4797117,4.65964612 46.3691917,4.69034612 L46.3691917,6.55997616 L47.3405909,6.55997616 L47.3405909,4.69034612 C47.2579567,4.67192612 47.1673917,4.63508612 47.0691517,4.57982611 L47.0691517,4.46009611 L48.0592268,4.46009611 L48.0592268,4.57982611 C48.0193168,4.60131611 47.9748017,4.62127111 47.9256817,4.63969112 C47.8765617,4.65811112 47.8197667,4.67499612 47.7552967,4.69034612 L47.7552967,6.55997616 L48.1651418,6.55997616 C48.1592576,6.70733617 48.1520943,6.85469617 48.1446751,7.00205617 C48.1370001,7.14941618 48.1272784,7.29677618 48.1152543,7.44413618 L48.0014084,7.44413618 L47.7967417,6.76259617 L45.6508117,6.76259617 Z" id="Fill-29" fill="#000000" sketch:type="MSShapeGroup"></path>
                <path d="M48.5244341,4.46009611 L49.5004383,4.46009611 L49.5004383,4.57982611 C49.4669241,4.59824611 49.4275258,4.61666611 49.3830108,4.63508612 C49.3387516,4.65350612 49.2857941,4.67192612 49.2243941,4.69034612 L49.2243941,5.95211615 L49.1737391,6.38038116 L49.1967641,6.38038116 L49.3763591,6.03500615 L50.3618291,4.46009611 L50.9835042,4.46009611 L50.9835042,4.57982611 C50.8852642,4.63508612 50.7839542,4.67192612 50.6795741,4.69034612 L50.6795741,6.53695116 C50.7376483,6.55230116 50.7929083,6.56841866 50.8453542,6.58530366 C50.8972883,6.60218866 50.9435942,6.62291116 50.9835042,6.64747117 L50.9835042,6.76259617 L50.0072441,6.76259617 L50.0072441,6.64747117 C50.0932041,6.59835116 50.1850483,6.56151116 50.2835441,6.53695116 L50.2835441,5.21992113 L50.3295941,4.85612612 L50.3065691,4.85612612 L50.1315791,5.20150113 L49.1553191,6.76259617 L48.5244341,6.76259617 L48.5244341,6.64747117 C48.5766241,6.62291116 48.6270233,6.60218866 48.6763991,6.58530366 C48.7255191,6.56841866 48.7759183,6.55230116 48.8281083,6.53695116 L48.8281083,4.69034612 C48.7086341,4.67192612 48.6073241,4.63508612 48.5244341,4.57982611 L48.5244341,4.46009611 Z" id="Fill-31" fill="#000000" sketch:type="MSShapeGroup"></path>
                <path d="M51.3885651,4.46009611 L52.3645693,4.46009611 L52.3645693,4.57982611 C52.3310551,4.59824611 52.2916568,4.61666611 52.2471418,4.63508612 C52.2028826,4.65350612 52.1499251,4.67192612 52.0885251,4.69034612 L52.0885251,5.95211615 L52.0378701,6.38038116 L52.0608951,6.38038116 L52.2404901,6.03500615 L53.2259601,4.46009611 L53.8476351,4.46009611 L53.8476351,4.57982611 C53.7493951,4.63508612 53.6480851,4.67192612 53.5437051,4.69034612 L53.5437051,6.53695116 C53.6017793,6.55230116 53.6570393,6.56841866 53.7094851,6.58530366 C53.7614193,6.60218866 53.8077251,6.62291116 53.8476351,6.64747117 L53.8476351,6.76259617 L52.8713751,6.76259617 L52.8713751,6.64747117 C52.9573351,6.59835116 53.0491793,6.56151116 53.1476751,6.53695116 L53.1476751,5.21992113 L53.1937251,4.85612612 L53.1707001,4.85612612 L52.9957101,5.20150113 L52.0194501,6.76259617 L51.3885651,6.76259617 L51.3885651,6.64747117 C51.4407551,6.62291116 51.4911543,6.60218866 51.5405301,6.58530366 C51.5896501,6.56841866 51.6400493,6.55230116 51.6922393,6.53695116 L51.6922393,4.69034612 C51.5727651,4.67192612 51.4714551,4.63508612 51.3885651,4.57982611 L51.3885651,4.46009611 Z" id="Fill-33" fill="#000000" sketch:type="MSShapeGroup"></path>
                <path d="M8.94947245,10.8559296 L7.95939742,10.8559296 L7.95939742,10.7408046 C8.00237742,10.7162446 8.04970659,10.6955221 8.10189659,10.6786371 C8.15434243,10.6617521 8.20806743,10.6456346 8.2630716,10.6302846 L8.2630716,8.78367955 C8.20806743,8.76832955 8.15434243,8.75221205 8.10189659,8.73532705 C8.04970659,8.71869788 8.00237742,8.69771955 7.95939742,8.67315955 L7.95939742,8.55342955 L8.94947245,8.55342955 L8.94947245,8.67315955 C8.87886244,8.71613955 8.78829744,8.75297955 8.67777744,8.78367955 L8.67777744,9.58955457 L9.70008746,9.58955457 L9.70008746,8.78367955 C9.59263746,8.76525955 9.50028163,8.72841955 9.42378746,8.67315955 L9.42378746,8.55342955 L10.4184675,8.55342955 L10.4184675,8.67315955 C10.3355775,8.72534955 10.2340116,8.76218955 10.1145375,8.78367955 L10.1145375,10.6302846 C10.1697975,10.6425646 10.2232666,10.6563796 10.2757125,10.6717296 C10.3279025,10.6870796 10.3752316,10.7103604 10.4184675,10.7408046 L10.4184675,10.8559296 L9.42378746,10.8559296 L9.42378746,10.7408046 C9.50028163,10.6855446 9.59263746,10.6487046 9.70008746,10.6302846 L9.70008746,9.79217458 L8.67777744,9.79217458 L8.67777744,10.6302846 C8.73917744,10.6425646 8.79136744,10.6579146 8.83434744,10.6763346 C8.87732744,10.6947546 8.91544661,10.7162446 8.94947245,10.7408046 L8.94947245,10.8559296 Z" id="Fill-35" fill="#000000" sketch:type="MSShapeGroup"></path>
                <path d="M11.2749463,9.70467957 C11.2749463,9.84282958 11.2879938,9.97330458 11.3140888,10.0961046 C11.3401838,10.2189046 11.3816288,10.3255871 11.4386797,10.4161521 C11.4952188,10.5067171 11.5696663,10.5780946 11.6617663,10.6302846 C11.7538663,10.6824746 11.8643864,10.7085696 11.9935822,10.7085696 C12.1591064,10.7085696 12.2949539,10.6272146 12.4008689,10.4645046 C12.5067839,10.3017946 12.5597414,10.0485196 12.5597414,9.70467957 C12.5597414,9.56345957 12.5466939,9.4324729 12.5205989,9.31095206 C12.4945039,9.18968706 12.4538264,9.08377206 12.3988222,8.99320706 C12.3433064,8.90264205 12.2726964,8.83126455 12.1867364,8.77907455 C12.1010322,8.72688455 11.9979314,8.70078955 11.8782014,8.70078955 C11.6970713,8.70078955 11.5512463,8.78240038 11.4407263,8.94485456 C11.3302063,9.10756456 11.2749463,9.36083957 11.2749463,9.70467957 M10.8328663,9.70467957 C10.8328663,9.51126957 10.8581938,9.34011707 10.9088488,9.19122206 C10.9597597,9.04232706 11.0324163,8.91645705 11.1275863,8.81361205 C11.2227563,8.71076705 11.3371138,8.63273788 11.4709147,8.57875705 C11.6042038,8.52528788 11.7523313,8.49816954 11.9150414,8.49816954 C12.1053814,8.49816954 12.2696264,8.52733455 12.4077764,8.58566455 C12.5459264,8.64399455 12.6587489,8.72611705 12.7462439,8.83203205 C12.8337389,8.93794706 12.8982089,9.06458456 12.9396539,9.21194456 C12.9810989,9.35930457 13.0018214,9.52354957 13.0018214,9.70467957 C13.0018214,10.0914996 12.9035814,10.3892896 12.7073572,10.5980496 C12.5106214,10.8070654 12.2466014,10.9111896 11.9150414,10.9111896 C11.7308413,10.9111896 11.5712013,10.8825363 11.4361213,10.8259971 C11.3010413,10.7692021 11.1889863,10.6878471 11.0999563,10.5819321 C11.0109263,10.4760171 10.9441538,10.3488679 10.8996388,10.1997171 C10.8551238,10.0510779 10.8328663,9.88580958 10.8328663,9.70467957" id="Fill-37" fill="#000000" sketch:type="MSShapeGroup"></path>
                <path d="M14.1346002,10.6578123 C14.1775802,10.6670223 14.2320727,10.6718831 14.2983336,10.6718831 L14.4615552,10.6718831 C14.6426853,10.6718831 14.7777653,10.6324848 14.8667953,10.5544556 C14.9558253,10.4759148 15.0003403,10.3646273 15.0003403,10.2203373 C15.0003403,10.0699073 14.9466153,9.95734058 14.8391653,9.88212558 C14.7317153,9.80691058 14.5935653,9.76904724 14.4247152,9.76904724 L14.1346002,9.76904724 L14.1346002,10.6578123 Z M14.1346002,9.63089724 L14.6518953,9.58510307 C14.7076669,9.55721724 14.7644619,9.50605057 14.8222803,9.43057973 C14.8795869,9.35536473 14.9082403,9.25635723 14.9082403,9.13355723 C14.9082403,8.98338306 14.8624461,8.87977055 14.7706019,8.82271972 C14.6792694,8.76592472 14.5449569,8.73752722 14.3676644,8.73752722 C14.3333827,8.73752722 14.2944961,8.73829472 14.2512602,8.73982972 C14.2075127,8.74162055 14.1688819,8.74673722 14.1346002,8.75594722 L14.1346002,9.63089724 Z M15.4610961,10.1834973 C15.4610961,10.3065531 15.4329544,10.4114448 15.3774386,10.4991956 C15.3221786,10.5866906 15.2472194,10.6578123 15.1528169,10.7133281 C15.0589261,10.7685881 14.9501969,10.8092656 14.8266294,10.8351048 C14.7033178,10.8611998 14.5736103,10.8745031 14.4380186,10.8745031 C14.3390111,10.8745031 14.2602144,10.8737356 14.2016286,10.8722006 C14.1430427,10.8704098 14.0936669,10.8681073 14.0535011,10.8652931 C14.0133352,10.8619673 13.9795652,10.8596648 13.9516794,10.8581298 C13.9240494,10.8565948 13.8930936,10.8558273 13.8590677,10.8558273 L13.4162202,10.8558273 L13.4162202,10.7407023 C13.5113902,10.6918381 13.6127002,10.6547423 13.7201502,10.6304381 L13.7201502,8.78383305 C13.6034902,8.76234305 13.5021802,8.72524722 13.4162202,8.67305722 L13.4162202,8.55332721 L13.8311819,8.55332721 C13.9053736,8.55332721 13.9688202,8.55255971 14.0212661,8.55128055 C14.0737119,8.54974555 14.1230877,8.54744305 14.1693936,8.54411721 C14.2156994,8.54130305 14.2620052,8.53900055 14.3085669,8.53720971 C14.3546169,8.53567471 14.4057836,8.53490721 14.4610436,8.53490721 C14.7329944,8.53490721 14.9445686,8.57558471 15.0957661,8.65719555 C15.2472194,8.73829472 15.3229461,8.88053805 15.3229461,9.08315806 C15.3229461,9.15683806 15.3073403,9.22284306 15.2763844,9.28091723 C15.2454286,9.33950307 15.2052628,9.39015807 15.1558869,9.43313807 C15.1065111,9.47611807 15.0507394,9.51193474 14.9890836,9.54135557 C14.9271719,9.57052057 14.8667953,9.59124307 14.8082094,9.60326724 C14.8946811,9.60940724 14.9770594,9.62654807 15.0558561,9.65392224 C15.1343969,9.68180807 15.2039836,9.71915974 15.2641044,9.76700058 C15.3242253,9.81432974 15.3720661,9.87291558 15.4078828,9.94173475 C15.4431878,10.0110656 15.4610961,10.0913973 15.4610961,10.1834973 L15.4610961,10.1834973 Z" id="Fill-39" fill="#000000" sketch:type="MSShapeGroup"></path>
                <path d="M16.344898,9.70467957 C16.344898,9.84282958 16.3579455,9.97330458 16.3840405,10.0961046 C16.4101355,10.2189046 16.4515805,10.3255871 16.5086313,10.4161521 C16.5651705,10.5067171 16.639618,10.5780946 16.731718,10.6302846 C16.823818,10.6824746 16.934338,10.7085696 17.0635338,10.7085696 C17.229058,10.7085696 17.3649055,10.6272146 17.4708205,10.4645046 C17.5767355,10.3017946 17.629693,10.0485196 17.629693,9.70467957 C17.629693,9.56345957 17.6166455,9.4324729 17.5905505,9.31095206 C17.5644555,9.18968706 17.523778,9.08377206 17.4687738,8.99320706 C17.413258,8.90264205 17.342648,8.83126455 17.256688,8.77907455 C17.1709838,8.72688455 17.067883,8.70078955 16.948153,8.70078955 C16.767023,8.70078955 16.621198,8.78240038 16.510678,8.94485456 C16.400158,9.10756456 16.344898,9.36083957 16.344898,9.70467957 M15.902818,9.70467957 C15.902818,9.51126957 15.9281455,9.34011707 15.9788005,9.19122206 C16.0297113,9.04232706 16.102368,8.91645705 16.197538,8.81361205 C16.292708,8.71076705 16.4070655,8.63273788 16.5408663,8.57875705 C16.6741555,8.52528788 16.822283,8.49816954 16.984993,8.49816954 C17.175333,8.49816954 17.339578,8.52733455 17.477728,8.58566455 C17.615878,8.64399455 17.7287005,8.72611705 17.8161955,8.83203205 C17.9036905,8.93794706 17.9681605,9.06458456 18.0096055,9.21194456 C18.0510505,9.35930457 18.071773,9.52354957 18.071773,9.70467957 C18.071773,10.0914996 17.973533,10.3892896 17.7773088,10.5980496 C17.580573,10.8070654 17.316553,10.9111896 16.984993,10.9111896 C16.800793,10.9111896 16.641153,10.8825363 16.506073,10.8259971 C16.370993,10.7692021 16.258938,10.6878471 16.169908,10.5819321 C16.080878,10.4760171 16.0141055,10.3488679 15.9695905,10.1997171 C15.9250755,10.0510779 15.902818,9.88580958 15.902818,9.70467957" id="Fill-41" fill="#000000" sketch:type="MSShapeGroup"></path>
                <path d="M20.2038881,8.55342955 C20.2008181,8.67315955 20.1954456,8.79749455 20.1877706,8.92643456 C20.1800956,9.05537456 20.1670481,9.18277956 20.1486281,9.30864956 L20.0288981,9.30864956 L19.826278,8.75604955 L19.204603,8.75604955 L19.204603,10.6302846 C19.379593,10.6640546 19.517743,10.7011504 19.619053,10.7408046 L19.619053,10.8559296 L18.486223,10.8559296 L18.486223,10.7408046 C18.538413,10.7103604 18.589068,10.6870796 18.638188,10.6717296 C18.687308,10.6563796 18.737963,10.6425646 18.790153,10.6302846 L18.790153,8.77907455 C18.676563,8.76065455 18.575253,8.72534955 18.486223,8.67315955 L18.486223,8.55342955 L20.2038881,8.55342955 Z" id="Fill-43" fill="#000000" sketch:type="MSShapeGroup"></path>
                <path d="M20.9683948,9.70467957 C20.9683948,9.84282958 20.9814423,9.97330458 21.0075373,10.0961046 C21.0336323,10.2189046 21.0750773,10.3255871 21.1321282,10.4161521 C21.1886673,10.5067171 21.2631148,10.5780946 21.3552148,10.6302846 C21.4473148,10.6824746 21.5578348,10.7085696 21.6870307,10.7085696 C21.8525548,10.7085696 21.9884024,10.6272146 22.0943174,10.4645046 C22.2002324,10.3017946 22.2531899,10.0485196 22.2531899,9.70467957 C22.2531899,9.56345957 22.2401424,9.4324729 22.2140474,9.31095206 C22.1879524,9.18968706 22.1472749,9.08377206 22.0922707,8.99320706 C22.0367549,8.90264205 21.9661449,8.83126455 21.8801849,8.77907455 C21.7944807,8.72688455 21.6913798,8.70078955 21.5716498,8.70078955 C21.3905198,8.70078955 21.2446948,8.78240038 21.1341748,8.94485456 C21.0236548,9.10756456 20.9683948,9.36083957 20.9683948,9.70467957 M20.5263148,9.70467957 C20.5263148,9.51126957 20.5516423,9.34011707 20.6022973,9.19122206 C20.6532082,9.04232706 20.7258648,8.91645705 20.8210348,8.81361205 C20.9162048,8.71076705 21.0305623,8.63273788 21.1643632,8.57875705 C21.2976523,8.52528788 21.4457798,8.49816954 21.6084898,8.49816954 C21.7988298,8.49816954 21.9630749,8.52733455 22.1012249,8.58566455 C22.2393749,8.64399455 22.3521974,8.72611705 22.4396924,8.83203205 C22.5271874,8.93794706 22.5916574,9.06458456 22.6331024,9.21194456 C22.6745474,9.35930457 22.6952699,9.52354957 22.6952699,9.70467957 C22.6952699,10.0914996 22.5970299,10.3892896 22.4008057,10.5980496 C22.2040699,10.8070654 21.9400499,10.9111896 21.6084898,10.9111896 C21.4242898,10.9111896 21.2646498,10.8825363 21.1295698,10.8259971 C20.9944898,10.7692021 20.8824348,10.6878471 20.7934048,10.5819321 C20.7043748,10.4760171 20.6376023,10.3488679 20.5930873,10.1997171 C20.5485723,10.0510779 20.5263148,9.88580958 20.5263148,9.70467957" id="Fill-45" fill="#000000" sketch:type="MSShapeGroup"></path>
                <path d="M25.2648344,10.8559296 L24.2747593,10.8559296 L24.2747593,10.7408046 C24.3328335,10.7070346 24.3865585,10.6817071 24.4359343,10.6648221 C24.4847985,10.6481929 24.5326393,10.6366804 24.5784335,10.6302846 L24.5784335,8.78367955 C24.5139635,8.76832955 24.4558893,8.75144455 24.4036993,8.73302455 C24.3515093,8.71460455 24.3085293,8.69464955 24.2747593,8.67315955 L24.2747593,8.55342955 L26.7292244,8.55342955 L26.7292244,8.67315955 C26.6890586,8.69771955 26.6447994,8.72074455 26.5956794,8.74223455 C26.5465594,8.76372455 26.4897644,8.77753955 26.4252944,8.78367955 L26.4252944,10.6302846 C26.5294185,10.6487046 26.6309844,10.6855446 26.7292244,10.7408046 L26.7292244,10.8559296 L25.7391494,10.8559296 L25.7391494,10.7408046 C25.7698494,10.7193146 25.805666,10.6993596 25.847111,10.6809396 C25.888556,10.6625196 25.9430485,10.6456346 26.0108444,10.6302846 L26.0108444,8.75604955 L24.9931393,8.75604955 L24.9931393,10.6302846 C25.0545393,10.6487046 25.1067293,10.6671246 25.1497093,10.6855446 C25.1926893,10.7039646 25.2308085,10.7223846 25.2648344,10.7408046 L25.2648344,10.8559296 Z" id="Fill-47" fill="#000000" sketch:type="MSShapeGroup"></path>
                <path d="M27.5855753,9.70467957 C27.5855753,9.84282958 27.5986228,9.97330458 27.6247178,10.0961046 C27.6508128,10.2189046 27.6922578,10.3255871 27.7493087,10.4161521 C27.8058478,10.5067171 27.8802953,10.5780946 27.9723953,10.6302846 C28.0644953,10.6824746 28.1750153,10.7085696 28.3042112,10.7085696 C28.4697353,10.7085696 28.6055829,10.6272146 28.7114979,10.4645046 C28.8174129,10.3017946 28.8703704,10.0485196 28.8703704,9.70467957 C28.8703704,9.56345957 28.8573229,9.4324729 28.8312279,9.31095206 C28.8051329,9.18968706 28.7644554,9.08377206 28.7094512,8.99320706 C28.6539354,8.90264205 28.5833254,8.83126455 28.4973653,8.77907455 C28.4116612,8.72688455 28.3085603,8.70078955 28.1888303,8.70078955 C28.0077003,8.70078955 27.8618753,8.78240038 27.7513553,8.94485456 C27.6408353,9.10756456 27.5855753,9.36083957 27.5855753,9.70467957 M27.1434953,9.70467957 C27.1434953,9.51126957 27.1688228,9.34011707 27.2194778,9.19122206 C27.2703887,9.04232706 27.3430453,8.91645705 27.4382153,8.81361205 C27.5333853,8.71076705 27.6477428,8.63273788 27.7815437,8.57875705 C27.9148328,8.52528788 28.0629603,8.49816954 28.2256703,8.49816954 C28.4160103,8.49816954 28.5802554,8.52733455 28.7184054,8.58566455 C28.8565554,8.64399455 28.9693779,8.72611705 29.0568729,8.83203205 C29.1443679,8.93794706 29.2088379,9.06458456 29.2502829,9.21194456 C29.2917279,9.35930457 29.3124504,9.52354957 29.3124504,9.70467957 C29.3124504,10.0914996 29.2142104,10.3892896 29.0179862,10.5980496 C28.8212504,10.8070654 28.5572303,10.9111896 28.2256703,10.9111896 C28.0414703,10.9111896 27.8818303,10.8825363 27.7467503,10.8259971 C27.6116703,10.7692021 27.4996153,10.6878471 27.4105853,10.5819321 C27.3215553,10.4760171 27.2547828,10.3488679 27.2102678,10.1997171 C27.1657528,10.0510779 27.1434953,9.88580958 27.1434953,9.70467957" id="Fill-49" fill="#000000" sketch:type="MSShapeGroup"></path>
                <path d="M31.0438281,8.55342955 L31.9328489,8.55342955 L31.9328489,8.67315955 C31.9018931,8.69771955 31.8612156,8.71920955 31.8105606,8.73762955 C31.7601614,8.75604955 31.6979939,8.77753955 31.6243139,8.80209955 C31.5196781,8.92796956 31.4094139,9.05537456 31.2927539,9.18431456 C31.1760939,9.31325456 31.0530381,9.44219457 30.9240981,9.57113457 C30.9916381,9.64481457 31.0630156,9.72616958 31.1382306,9.81519958 C31.2134456,9.90422958 31.2894281,9.99658542 31.3664339,10.0914996 C31.4431839,10.1866696 31.5196781,10.2803046 31.5964281,10.3724046 C31.6731781,10.4645046 31.7483931,10.5504646 31.8220731,10.6302846 L32.0387639,10.7408046 L32.0387639,10.8559296 L31.4997231,10.8559296 L31.3523631,10.7500146 C31.2142131,10.5842346 31.0883431,10.4184546 30.9747531,10.2526746 C30.8611631,10.0868946 30.7460381,9.92418458 30.6296339,9.76454458 L30.4451781,9.76454458 L30.4451781,10.6302846 C30.5065781,10.6456346 30.5626056,10.6617521 30.6132606,10.6786371 C30.6641714,10.6955221 30.7079189,10.7162446 30.7445031,10.7408046 L30.7445031,10.8559296 L29.7270539,10.8559296 L29.7270539,10.7408046 C29.8099439,10.6916846 29.9109981,10.6548446 30.0307281,10.6302846 L30.0307281,8.78367955 C29.9232781,8.76218955 29.8222239,8.72534955 29.7270539,8.67315955 L29.7270539,8.55342955 L30.6708231,8.55342955 L30.6708231,8.67315955 C30.6401231,8.69464955 30.6071206,8.71460455 30.5718156,8.73302455 C30.5367664,8.75144455 30.4945539,8.76832955 30.4451781,8.78367955 L30.4451781,9.64481457 L30.6570081,9.59876457 C30.7798081,9.45754457 30.8967239,9.3257904 31.0069881,9.20273456 C31.1175081,9.08019039 31.2203531,8.94638956 31.3155231,8.80209955 C31.2633331,8.78086538 31.2149806,8.76014288 31.1704656,8.73993205 C31.1259506,8.71997705 31.0837381,8.69771955 31.0438281,8.67315955 L31.0438281,8.55342955 Z" id="Fill-51" fill="#000000" sketch:type="MSShapeGroup"></path>
                <path d="M32.7154943,9.70467957 C32.7154943,9.84282958 32.7285418,9.97330458 32.7546368,10.0961046 C32.7807318,10.2189046 32.8221768,10.3255871 32.8792276,10.4161521 C32.9357668,10.5067171 33.0102143,10.5780946 33.1023143,10.6302846 C33.1944143,10.6824746 33.3049343,10.7085696 33.4341301,10.7085696 C33.5996543,10.7085696 33.7355018,10.6272146 33.8414168,10.4645046 C33.9473318,10.3017946 34.0002893,10.0485196 34.0002893,9.70467957 C34.0002893,9.56345957 33.9872418,9.4324729 33.9611468,9.31095206 C33.9350518,9.18968706 33.8943743,9.08377206 33.8393701,8.99320706 C33.7838543,8.90264205 33.7132443,8.83126455 33.6272843,8.77907455 C33.5415801,8.72688455 33.4384793,8.70078955 33.3187493,8.70078955 C33.1376193,8.70078955 32.9917943,8.78240038 32.8812743,8.94485456 C32.7707543,9.10756456 32.7154943,9.36083957 32.7154943,9.70467957 M32.2734143,9.70467957 C32.2734143,9.51126957 32.2987418,9.34011707 32.3493968,9.19122206 C32.4003076,9.04232706 32.4729643,8.91645705 32.5681343,8.81361205 C32.6633043,8.71076705 32.7776618,8.63273788 32.9114626,8.57875705 C33.0447518,8.52528788 33.1928793,8.49816954 33.3555893,8.49816954 C33.5459293,8.49816954 33.7101743,8.52733455 33.8483243,8.58566455 C33.9864743,8.64399455 34.0992968,8.72611705 34.1867918,8.83203205 C34.2742868,8.93794706 34.3387568,9.06458456 34.3802018,9.21194456 C34.4216468,9.35930457 34.4423693,9.52354957 34.4423693,9.70467957 C34.4423693,10.0914996 34.3441293,10.3892896 34.1479052,10.5980496 C33.9511693,10.8070654 33.6871493,10.9111896 33.3555893,10.9111896 C33.1713893,10.9111896 33.0117493,10.8825363 32.8766693,10.8259971 C32.7415893,10.7692021 32.6295343,10.6878471 32.5405043,10.5819321 C32.4514743,10.4760171 32.3847018,10.3488679 32.3401868,10.1997171 C32.2956718,10.0510779 32.2734143,9.88580958 32.2734143,9.70467957" id="Fill-53" fill="#000000" sketch:type="MSShapeGroup"></path>
                <path d="M35.1514114,10.4599252 C35.1943914,10.3862452 35.2327664,10.2880052 35.2665364,10.1652052 C35.3003064,10.0424052 35.3287039,9.90732516 35.3517289,9.75996516 C35.3747539,9.61234932 35.3924064,9.45833765 35.4046864,9.29716265 C35.4169664,9.13598764 35.4231064,8.98018514 35.4231064,8.82975514 C35.3617064,8.81133514 35.3059348,8.78831014 35.2550239,8.7604243 C35.2043689,8.73305013 35.1575514,8.70388513 35.1145714,8.67318513 L35.1145714,8.55345513 L36.9982723,8.55345513 L36.9982723,8.67318513 C36.8997765,8.7281893 36.7984665,8.76528513 36.6940865,8.78370513 L36.6940865,10.6303102 C36.7585565,10.6456602 36.8153515,10.6625452 36.8644715,10.6809652 C36.9138473,10.6993852 36.9581065,10.7193402 36.9982723,10.7408302 L36.9982723,10.8559552 L36.0081973,10.8559552 L36.0081973,10.7408302 C36.0818773,10.6886402 36.1721865,10.6518002 36.2796365,10.6303102 L36.2796365,8.75607513 L35.6717764,8.75607513 C35.6687064,8.91878514 35.6594964,9.09147264 35.6444023,9.27413765 C35.6287964,9.45680265 35.6057714,9.63639766 35.5750714,9.81292266 C35.5443714,9.98944766 35.5044614,10.1552277 35.4553414,10.3102627 C35.4062214,10.4652977 35.3466123,10.5950052 35.2757464,10.6993852 C35.2176723,10.7884152 35.1547373,10.8505827 35.0869414,10.8858877 C35.0194014,10.9211927 34.9564664,10.9327052 34.8983923,10.9204252 C34.8520864,10.8682352 34.8083389,10.7999277 34.7668939,10.7155027 C34.7257048,10.6310777 34.7016564,10.5535602 34.6957723,10.4829502 L34.7602423,10.3678252 L35.1514114,10.4599252 Z" id="Fill-55" fill="#000000" sketch:type="MSShapeGroup"></path>
                <path d="M38.4350068,8.70084072 C38.2597609,8.70084072 38.1264718,8.75993822 38.0343718,8.87787739 C37.9420159,8.99632822 37.8867559,9.20432073 37.8683359,9.50211074 L38.8816918,9.50211074 C38.8847618,9.4742249 38.8870643,9.44761823 38.8883434,9.4212674 C38.8898784,9.39542823 38.8906459,9.37010073 38.8906459,9.34554073 C38.8906459,9.14906073 38.8540618,8.99249072 38.7803818,8.87583072 C38.7067018,8.75917072 38.5913209,8.70084072 38.4350068,8.70084072 L38.4350068,8.70084072 Z M39.2777218,10.5336308 C39.2529059,10.5858208 39.2147868,10.6349408 39.1625968,10.6809908 C39.1104068,10.7270408 39.0502859,10.7669508 38.9830018,10.8007208 C38.9154618,10.8344908 38.8417818,10.8610974 38.7617059,10.8810524 C38.6821418,10.9012633 38.6005309,10.9112408 38.5176409,10.9112408 C38.3365109,10.9112408 38.1768709,10.8825874 38.0387209,10.8260483 C37.9008267,10.7692533 37.7857017,10.6878983 37.6936017,10.5819833 C37.6012459,10.4758124 37.5316592,10.3491749 37.4838184,10.2020708 C37.4364892,10.0547107 37.4126967,9.88893075 37.4126967,9.70473074 C37.4126967,9.31177073 37.5030059,9.01244572 37.6841359,8.80675572 C37.8652659,8.60106571 38.1216109,8.49822071 38.4531709,8.49822071 C38.5606209,8.49822071 38.6665359,8.51280321 38.7709159,8.54196821 C38.8755518,8.57113321 38.9684193,8.61948571 39.0495184,8.68702572 C39.1311293,8.75456572 39.1971343,8.84436322 39.2477893,8.95641822 C39.2984443,9.06847323 39.3237718,9.2071349 39.3237718,9.37317073 C39.3237718,9.42536073 39.3214693,9.47831824 39.3166085,9.53204324 C39.3122593,9.58576824 39.3038168,9.64333074 39.2915368,9.70473074 L37.8545209,9.70473074 C37.8545209,9.83367074 37.8708942,9.95391241 37.9031292,10.0662233 C37.9353642,10.1782783 37.9834609,10.2757508 38.0479309,10.3583849 C38.1124009,10.4415308 38.1940118,10.5067683 38.2919959,10.5543533 C38.3902359,10.6019383 38.5053609,10.6254749 38.6376268,10.6254749 C38.7450768,10.6254749 38.8540618,10.6103808 38.9643259,10.5796808 C39.0751018,10.5489808 39.1577359,10.5090708 39.2132518,10.4599508 L39.2777218,10.5336308 Z" id="Fill-57" fill="#000000" sketch:type="MSShapeGroup"></path>
                <path d="M40.7560036,10.8559296 L39.7659285,10.8559296 L39.7659285,10.7408046 C39.8089085,10.7162446 39.8562377,10.6955221 39.9084277,10.6786371 C39.9608735,10.6617521 40.0145986,10.6456346 40.0696027,10.6302846 L40.0696027,8.78367955 C40.0145986,8.76832955 39.9608735,8.75221205 39.9084277,8.73532705 C39.8562377,8.71869788 39.8089085,8.69771955 39.7659285,8.67315955 L39.7659285,8.55342955 L40.7560036,8.55342955 L40.7560036,8.67315955 C40.6853936,8.71613955 40.5948286,8.75297955 40.4843086,8.78367955 L40.4843086,9.58955457 L41.5066186,9.58955457 L41.5066186,8.78367955 C41.3991686,8.76525955 41.3068128,8.72841955 41.2303186,8.67315955 L41.2303186,8.55342955 L42.2249986,8.55342955 L42.2249986,8.67315955 C42.1421086,8.72534955 42.0405428,8.76218955 41.9210686,8.78367955 L41.9210686,10.6302846 C41.9763286,10.6425646 42.0297978,10.6563796 42.0822436,10.6717296 C42.1344336,10.6870796 42.1817628,10.7103604 42.2249986,10.7408046 L42.2249986,10.8559296 L41.2303186,10.8559296 L41.2303186,10.7408046 C41.3068128,10.6855446 41.3991686,10.6487046 41.5066186,10.6302846 L41.5066186,9.79217458 L40.4843086,9.79217458 L40.4843086,10.6302846 C40.5457086,10.6425646 40.5978986,10.6579146 40.6408786,10.6763346 C40.6838586,10.6947546 40.7219777,10.7162446 40.7560036,10.7408046 L40.7560036,10.8559296 Z" id="Fill-59" fill="#000000" sketch:type="MSShapeGroup"></path>
                <path d="M42.6300339,8.55342955 L43.6060381,8.55342955 L43.6060381,8.67315955 C43.572524,8.69157955 43.5331256,8.70999955 43.4886106,8.72841955 C43.4443515,8.74683955 43.391394,8.76525955 43.329994,8.78367955 L43.329994,10.0454496 L43.279339,10.4737146 L43.302364,10.4737146 L43.481959,10.1283396 L44.467429,8.55342955 L45.089104,8.55342955 L45.089104,8.67315955 C44.990864,8.72841955 44.889554,8.76525955 44.785174,8.78367955 L44.785174,10.6302846 C44.8432482,10.6456346 44.8985082,10.6617521 44.950954,10.6786371 C45.0028882,10.6955221 45.049194,10.7162446 45.089104,10.7408046 L45.089104,10.8559296 L44.112844,10.8559296 L44.112844,10.7408046 C44.198804,10.6916846 44.2906482,10.6548446 44.389144,10.6302846 L44.389144,9.31325456 L44.435194,8.94945956 L44.412169,8.94945956 L44.237179,9.29483456 L43.260919,10.8559296 L42.6300339,10.8559296 L42.6300339,10.7408046 C42.682224,10.7162446 42.7326231,10.6955221 42.781999,10.6786371 C42.831119,10.6617521 42.8815181,10.6456346 42.9337081,10.6302846 L42.9337081,8.78367955 C42.814234,8.76525955 42.712924,8.72841955 42.6300339,8.67315955 L42.6300339,8.55342955 Z" id="Fill-61" fill="#000000" sketch:type="MSShapeGroup"></path>
                <path d="M46.8575264,8.75604955 C46.8176164,8.75016538 46.7661939,8.74376955 46.7030031,8.73762955 C46.640068,8.73148955 46.5871105,8.72841955 46.5441305,8.72841955 C46.3537905,8.72534955 46.2228039,8.76909705 46.150403,8.85966205 C46.0785139,8.95022706 46.0421855,9.06918956 46.0421855,9.21654956 C46.0421855,9.36697957 46.098213,9.49054707 46.2105239,9.58725207 C46.322323,9.68395707 46.4968014,9.73230958 46.7331914,9.73230958 L46.8575264,9.73230958 L46.8575264,8.75604955 Z M45.6095714,9.23036456 C45.6095714,9.12598456 45.6264564,9.03081456 45.6599705,8.94485456 C45.6937405,8.85889455 45.746698,8.78521455 45.818843,8.72381455 C45.8912439,8.66241455 45.9833439,8.61406205 46.0953989,8.57875705 C46.2074539,8.54345205 46.3430455,8.52579955 46.5026855,8.52579955 C46.5397814,8.52579955 46.5912039,8.52733455 46.6572089,8.53040455 C46.7232139,8.53347455 46.7930564,8.53680038 46.8667364,8.53961455 C46.9401606,8.54268455 47.0117939,8.54575455 47.0808689,8.54882455 C47.1499439,8.55189455 47.2041806,8.55342955 47.2443464,8.55342955 L47.5759064,8.55342955 L47.5759064,8.67315955 C47.5513464,8.69464955 47.5165531,8.71460455 47.4720381,8.73302455 C47.4277789,8.75144455 47.3610064,8.76832955 47.2719764,8.78367955 L47.2719764,10.6302846 C47.3853106,10.6640546 47.4868764,10.7011504 47.5759064,10.7408046 L47.5759064,10.8559296 L46.5858314,10.8559296 L46.5858314,10.7408046 C46.6257414,10.7162446 46.6679539,10.6955221 46.7124689,10.6786371 C46.7567281,10.6617521 46.8053364,10.6456346 46.8575264,10.6302846 L46.8575264,9.85203958 L46.5213614,9.89808958 C46.4568914,10.0055396 46.3844905,10.1352471 46.3049264,10.2872121 C46.2248505,10.4391771 46.1161214,10.5934446 45.9779714,10.7500146 L45.8352164,10.8559296 L45.3148513,10.8559296 L45.3148513,10.7408046 L45.5727314,10.6302846 C45.7108814,10.4859946 45.8275414,10.3432396 45.9227114,10.2020196 C46.0178814,10.0610554 46.1038414,9.94106958 46.1805914,9.84282958 C46.1097255,9.83054958 46.0409064,9.80982708 45.9733664,9.78066208 C45.9055705,9.75149708 45.8451939,9.71158707 45.7914689,9.66093207 C45.7377439,9.61027707 45.6937405,9.5499004 45.6599705,9.47903457 C45.6264564,9.40842457 45.6095714,9.3257904 45.6095714,9.23036456 L45.6095714,9.23036456 Z" id="Fill-63" fill="#000000" sketch:type="MSShapeGroup"></path>
                <path d="M2.66336587,0 L0.105032476,0 L0.105032476,15.3500004 L2.66336587,15.3500004 L2.66336587,0 Z" id="Fill-75" fill="#D92F2F" sketch:type="MSShapeGroup"></path>
            </g>
        </g>
    </g>
</svg>