<?xml version="1.0" encoding="UTF-8" standalone="no"?>
<svg width="61px" height="16px" viewBox="0 0 61 16" version="1.1" xmlns="http://www.w3.org/2000/svg" xmlns:xlink="http://www.w3.org/1999/xlink" xmlns:sketch="http://www.bohemiancoding.com/sketch/ns">
    <!-- Generator: Sketch 3.4.4 (17249) - http://www.bohemiancoding.com/sketch -->
    <title>logo sign</title>
    <desc>Created with Sketch.</desc>
    <defs></defs>
    <g id="Page-1" stroke="none" stroke-width="1" fill="none" fill-rule="evenodd" sketch:type="MSPage">
        <g id="logo-sign" sketch:type="MSArtboardGroup">
            <g id="logo" sketch:type="MSLayerGroup">
                <path d="M2.72598098,8.8080093 C2.79966099,9.17026931 2.92553099,9.49568932 3.10384683,9.78401349 C3.281651,10.0728493 3.51829684,10.3030993 3.81276101,10.4750193 C4.10748102,10.6469393 4.47613686,10.7326435 4.91796104,10.7326435 C5.36029688,10.7326435 5.73151106,10.6469393 6.0326269,10.4750193 C6.33323107,10.3030993 6.57269108,10.0728493 6.75075108,9.78401349 C6.92881109,9.49568932 7.05468109,9.17026931 7.12836109,8.8080093 C7.2020411,8.44600513 7.23913693,8.07427928 7.23913693,7.69359927 C7.23913693,7.31291927 7.2020411,6.93812342 7.12836109,6.56997925 C7.05468109,6.20157924 6.92881109,5.87615923 6.75075108,5.59371922 C6.57269108,5.31127922 6.33323107,5.08102921 6.0326269,4.90271337 C5.73151106,4.7249092 5.36029688,4.63562337 4.91796104,4.63562337 C4.47613686,4.63562337 4.10748102,4.7249092 3.81276101,4.90271337 C3.51829684,5.08102921 3.281651,5.31127922 3.10384683,5.59371922 C2.92553099,5.87615923 2.79966099,6.20157924 2.72598098,6.56997925 C2.65230098,6.93812342 2.61546098,7.31291927 2.61546098,7.69359927 C2.61546098,8.07427928 2.65230098,8.44600513 2.72598098,8.8080093 M0.349800925,5.62134922 C0.583120931,5.00120921 0.914680939,4.47316919 1.34473678,4.03722918 C1.77428096,3.60128917 2.29004097,3.26358916 2.89176099,3.02412916 C3.493481,2.78466915 4.16888102,2.66468332 4.91796104,2.66468332 C5.66704106,2.66468332 6.34551107,2.78466915 6.95337109,3.02412916 C7.5612311,3.26358916 8.08006112,3.60128917 8.50986113,4.03722918 C8.93966114,4.47316919 9.27122115,5.00120921 9.50454115,5.62134922 C9.73760533,6.24148924 9.85452116,6.93223926 9.85452116,7.69359927 C9.85452116,8.45495929 9.73760533,9.14263931 9.50454115,9.75663933 C9.27122115,10.3706393 8.93966114,10.8956094 8.50986113,11.3312935 C8.08006112,11.7674894 7.5612311,12.1023752 6.95337109,12.3354394 C6.34551107,12.5685036 5.66704106,12.6851636 4.91796104,12.6851636 C4.16888102,12.6851636 3.493481,12.5685036 2.89176099,12.3354394 C2.29004097,12.1023752 1.77428096,11.7674894 1.34473678,11.3312935 C0.914680939,10.8956094 0.583120931,10.3706393 0.349800925,9.75663933 C0.11648092,9.14263931 7.67500019e-05,8.45495929 7.67500019e-05,7.69359927 C7.67500019e-05,6.93223926 0.11648092,6.24148924 0.349800925,5.62134922" id="Fill-65" fill="#000000" sketch:type="MSShapeGroup"></path>
                <path d="M13.7503001,10.0789382 C13.8667043,10.2815582 14.0173901,10.4473382 14.2015901,10.5762782 C14.3855343,10.7052182 14.5976201,10.8003882 14.8370801,10.8617882 C15.0765401,10.923444 15.3252101,10.9538882 15.5830901,10.9538882 C15.7672901,10.9538882 15.9607001,10.932654 16.1633202,10.8894182 C16.3659402,10.8464382 16.5498843,10.7788982 16.7159202,10.6867982 C16.8817002,10.5946982 17.0198502,10.472154 17.1303702,10.3183982 C17.2408902,10.1648982 17.2958943,9.97148816 17.2958943,9.73816816 C17.2958943,9.34546398 17.0352002,9.05048814 16.5133002,8.85400814 C15.9911443,8.65752813 15.2635543,8.46130396 14.3305301,8.26456812 C13.9495943,8.17860812 13.5781243,8.07755395 13.2161201,7.96063811 C12.8536042,7.84423394 12.5312542,7.69073394 12.2490701,7.5001381 C11.9663742,7.31005393 11.73945,7.07033809 11.56753,6.78175809 C11.3953542,6.49317808 11.30965,6.14012807 11.30965,5.72260806 C11.30965,5.10860804 11.42938,4.60512803 11.66884,4.21216802 C11.9083,3.81920801 12.2242542,3.509138 12.6174701,3.281958 C13.0101742,3.05477799 13.4522543,2.89513799 13.9437101,2.80303799 C14.4346543,2.71093798 14.9383901,2.66488798 15.4541501,2.66488798 C15.9699101,2.66488798 16.4700643,2.71400798 16.9551243,2.81224799 C17.4404402,2.91048799 17.8730544,3.07652383 18.2539902,3.309588 C18.6344144,3.542908 18.9506244,3.85297801 19.2026202,4.23979802 C19.4541044,4.62661803 19.6047902,5.11474804 19.6539102,5.70418806 L17.1669543,5.70418806 C17.1303702,5.20096388 16.9397743,4.86019387 16.5961902,4.68187803 C16.2520943,4.50407386 15.8468543,4.41478803 15.3804701,4.41478803 C15.2331101,4.41478803 15.0734701,4.42399803 14.9015501,4.44241803 C14.7293743,4.46083803 14.5728043,4.50074803 14.4318401,4.56214803 C14.2903643,4.62380386 14.1708901,4.71257803 14.0726501,4.8289822 C13.9741543,4.94615387 13.9252901,5.10272388 13.9252901,5.29894805 C13.9252901,5.53252389 14.0112501,5.72260806 14.1829143,5.86996806 C14.3548343,6.01732807 14.5792001,6.13705807 14.8552443,6.22915807 C15.1315443,6.32125807 15.4477543,6.40414808 15.8038743,6.47782808 C16.1602502,6.55150808 16.5225102,6.63132808 16.8906543,6.71728808 C17.2713343,6.80324809 17.6430602,6.90762809 18.0053202,7.03042809 C18.3673244,7.15322809 18.6896744,7.3159381 18.9723702,7.5185581 C19.2548102,7.72117811 19.4817344,7.97317395 19.6539102,8.27377812 C19.8255744,8.57489396 19.9117902,8.94610814 19.9117902,9.38818815 C19.9117902,10.0144682 19.7856644,10.5394382 19.5339244,10.9630982 C19.2821844,11.3867582 18.9539502,11.7275282 18.5487102,11.9854082 C18.1434702,12.2432882 17.6796444,12.4246741 17.1577443,12.5287982 C16.6358443,12.6329224 16.1047343,12.6853682 15.5646701,12.6853682 C15.0120701,12.6853682 14.4714943,12.6301082 13.9437101,12.5195882 C13.4154143,12.4090682 12.9457042,12.2248682 12.5345801,11.9669882 C12.1229442,11.7091082 11.7852442,11.3683382 11.52148,10.9446782 C11.2572042,10.5210182 11.1129142,9.98990816 11.08861,9.35134815 L13.5750543,9.35134815 C13.5750543,9.63404399 13.6333843,9.87631816 13.7503001,10.0789382" id="Fill-67" fill="#000000" sketch:type="MSShapeGroup"></path>
                <path d="M35.9828057,5.15163921 C35.6696657,4.8077992 35.1938157,4.63562337 34.5552557,4.63562337 C34.1377357,4.63562337 33.7910815,4.70674503 33.5147815,4.8477092 C33.2382257,4.98892921 33.0171857,5.16391921 32.8516615,5.37242338 C32.6856256,5.58169506 32.5687098,5.80273506 32.5016815,6.03579923 C32.4338856,6.26911924 32.3939756,6.47787924 32.3816956,6.66182342 L36.6369716,6.66182342 C36.5139157,5.99895923 36.2962016,5.49547922 35.9828057,5.15163921 M33.0263957,10.1618793 C33.4190998,10.5425593 33.9842357,10.7326435 34.7210357,10.7326435 C35.2490757,10.7326435 35.7034357,10.6011452 36.0841157,10.3368693 C36.4647957,10.0728493 36.6981157,9.79347933 36.7840757,9.49875932 L39.0865758,9.49875932 C38.7181758,10.6407993 38.1532958,11.4574194 37.3921916,11.9483635 C36.6303199,12.4398194 35.7095757,12.6851636 34.6289357,12.6851636 C33.8798557,12.6851636 33.2044557,12.5654336 32.6027356,12.3262294 C32.0010156,12.0865136 31.4911398,11.7457435 31.0741314,11.3039194 C30.6563556,10.8615835 30.3340056,10.3340552 30.1068256,9.71954349 C29.8796456,9.10579931 29.7660556,8.43014346 29.7660556,7.69359927 C29.7660556,6.98135926 29.8827156,6.31849507 30.1160356,5.70423923 C30.3490998,5.09023921 30.6806598,4.55938503 31.1107156,4.11090919 C31.5405156,3.66268917 32.0532056,3.30963917 32.6490415,3.05175916 C33.2443657,2.79387915 33.9044157,2.66468332 34.6289357,2.66468332 C35.4394157,2.66468332 36.1455157,2.82150915 36.7472357,3.13439333 C37.3489558,3.44778917 37.8432258,3.86837918 38.2300458,4.39641919 C38.6168658,4.92445921 38.8962358,5.52643505 39.0684116,6.20157924 C39.23982,6.87697925 39.3014758,7.58307927 39.2523558,8.31987929 L32.3816956,8.31987929 C32.4185356,9.16694348 32.6331798,9.78145516 33.0263957,10.1618793" id="Fill-69" fill="#000000" sketch:type="MSShapeGroup"></path>
                <path d="M43.2308457,8.8080093 C43.3045257,9.17026931 43.4303957,9.49568932 43.6087115,9.78401349 C43.7865157,10.0728493 44.0231615,10.3030993 44.3176257,10.4750193 C44.6123457,10.6469393 44.9810015,10.7326435 45.4228257,10.7326435 C45.8651616,10.7326435 46.2363757,10.6469393 46.5374916,10.4750193 C46.8380957,10.3030993 47.0775558,10.0728493 47.2556158,9.78401349 C47.4336758,9.49568932 47.5595458,9.17026931 47.6332258,8.8080093 C47.7069058,8.44600513 47.7440016,8.07427928 47.7440016,7.69359927 C47.7440016,7.31291927 47.7069058,6.93812342 47.6332258,6.56997925 C47.5595458,6.20157924 47.4336758,5.87615923 47.2556158,5.59371922 C47.0775558,5.31127922 46.8380957,5.08102921 46.5374916,4.90271337 C46.2363757,4.7249092 45.8651616,4.63562337 45.4228257,4.63562337 C44.9810015,4.63562337 44.6123457,4.7249092 44.3176257,4.90271337 C44.0231615,5.08102921 43.7865157,5.31127922 43.6087115,5.59371922 C43.4303957,5.87615923 43.3045257,6.20157924 43.2308457,6.56997925 C43.1571657,6.93812342 43.1203257,7.31291927 43.1203257,7.69359927 C43.1203257,8.07427928 43.1571657,8.44600513 43.2308457,8.8080093 M40.8546656,5.62134922 C41.0879856,5.00120921 41.4195456,4.47316919 41.8496015,4.03722918 C42.2791456,3.60128917 42.7949056,3.26358916 43.3966257,3.02412916 C43.9983457,2.78466915 44.6737457,2.66468332 45.4228257,2.66468332 C46.1719057,2.66468332 46.8503757,2.78466915 47.4582358,3.02412916 C48.0660958,3.26358916 48.5849258,3.60128917 49.0147258,4.03722918 C49.4445258,4.47316919 49.7760858,5.00120921 50.0094058,5.62134922 C50.24247,6.24148924 50.3593858,6.93223926 50.3593858,7.69359927 C50.3593858,8.45495929 50.24247,9.14263931 50.0094058,9.75663933 C49.7760858,10.3706393 49.4445258,10.8956094 49.0147258,11.3312935 C48.5849258,11.7674894 48.0660958,12.1023752 47.4582358,12.3354394 C46.8503757,12.5685036 46.1719057,12.6851636 45.4228257,12.6851636 C44.6737457,12.6851636 43.9983457,12.5685036 43.3966257,12.3354394 C42.7949056,12.1023752 42.2791456,11.7674894 41.8496015,11.3312935 C41.4195456,10.8956094 41.0879856,10.3706393 40.8546656,9.75663933 C40.6213456,9.14263931 40.5049414,8.45495929 40.5049414,7.69359927 C40.5049414,6.93223926 40.6213456,6.24148924 40.8546656,5.62134922" id="Fill-71" fill="#000000" sketch:type="MSShapeGroup"></path>
                <path d="M54.5407259,2.92284474 L54.5407259,4.24908477 L54.5959859,4.24908477 C54.9275459,3.69622893 55.3570901,3.29431475 55.885386,3.04257474 C56.4131702,2.79083474 56.953746,2.6647089 57.506346,2.6647089 C58.2060502,2.6647089 58.7801402,2.76013474 59.2283602,2.95021891 C59.6765802,3.14107058 60.0298861,3.40483475 60.2877661,3.74253476 C60.5456461,4.08023477 60.7267761,4.49161478 60.8311561,4.97641896 C60.9352803,5.46199064 60.9874703,5.99872898 60.9874703,6.588169 L60.9874703,12.445985 L58.372086,12.445985 L58.372086,7.06708901 C58.372086,6.28142482 58.2490302,5.69505481 58.0034302,5.30797897 C57.7578302,4.92141479 57.322146,4.72800478 56.695866,4.72800478 C55.983626,4.72800478 55.4676101,4.93983479 55.148586,5.3634948 C54.8290501,5.78689898 54.6696659,6.48404483 54.6696659,7.45416485 L54.6696659,12.445985 L52.05377,12.445985 L52.05377,2.92284474 L54.5407259,2.92284474 Z" id="Fill-73" fill="#000000" sketch:type="MSShapeGroup"></path>
                <path d="M25.939147,8.18666687 L25.939147,9.52569857 C25.939147,9.96803441 26.0591328,10.2719644 26.2064928,10.4195803 C26.3538528,10.5669403 26.6485728,10.6406203 27.0906528,10.6406203 C27.2380128,10.6406203 27.378977,10.6344803 27.5143129,10.6222003 C27.649137,10.6101761 27.778077,10.5915003 27.9011329,10.5669403 L27.9011329,12.5931403 C27.6800929,12.6297245 27.4344928,12.6542845 27.1643328,12.6668203 C26.893917,12.6788445 26.6301528,12.6852403 26.3722728,12.6852403 C25.9670328,12.6852403 25.583027,12.6576103 25.2210228,12.6023503 C24.858507,12.5470903 24.5394828,12.4396403 24.2631828,12.2800003 C23.9868828,12.1203603 23.7686569,11.8929245 23.6090169,11.5984603 C23.4493769,11.3037403 23.3698127,10.9169203 23.3698127,10.4380003 L23.3808136,8.69833355 L25.939147,8.18666687 Z" id="Fill-77" fill="#000000" sketch:type="MSShapeGroup"></path>
                <path d="M28.4974804,2.5583334 L25.939147,2.5583334 L25.939147,0 L23.3808136,0 L23.3808136,2.5583334 L20.8224802,2.5583334 L20.8224802,5.11666679 L23.3808136,5.11666679 L23.3808136,7.41916685 L25.939147,6.90750017 L25.939147,5.11666679 L28.4974804,5.11666679 L28.4974804,2.5583334 Z" id="Fill-78" fill="#D92F2F" sketch:type="MSShapeGroup"></path>
            </g>
        </g>
    </g>
</svg>