<?xml version="1.0" encoding="UTF-8" standalone="no"?>
<svg width="120px" height="16px" viewBox="0 0 120 16" version="1.1" xmlns="http://www.w3.org/2000/svg" xmlns:xlink="http://www.w3.org/1999/xlink" xmlns:sketch="http://www.bohemiancoding.com/sketch/ns">
    <!-- Generator: Sketch 3.4.4 (17249) - http://www.bohemiancoding.com/sketch -->
    <title>Letter</title>
    <desc>Created with Sketch.</desc>
    <defs>
        <path id="path-1" d="M0,0 L119.847686,0 L119.847686,15.3500004 L0,15.3500004 L0,0 Z"></path>
    </defs>
    <g id="Page-1" stroke="none" stroke-width="1" fill="none" fill-rule="evenodd" sketch:type="MSPage">
        <g id="Letter" sketch:type="MSArtboardGroup">
            <g id="logo" sketch:type="MSLayerGroup">
                <path d="M73.9133986,6.76259617 L73.9133986,6.62905116 C73.9991028,6.58914116 74.1249728,6.55230116 74.2910086,6.51853116 L74.2910086,3.78776609 C74.1712786,3.76934609 74.0454086,3.73097109 73.9133986,3.67264109 L73.9133986,3.53909609 L75.0784636,3.53909609 L75.0784636,3.67264109 C74.9891778,3.71255109 74.8740528,3.75092609 74.7328328,3.78776609 L74.7328328,6.52313616 L76.1099836,6.52313616 L76.1099836,3.78776609 C76.0544678,3.77548609 75.9976728,3.76013609 75.9395986,3.74171609 C75.8810128,3.72329609 75.8226828,3.70027109 75.7643528,3.67264109 L75.7643528,3.53909609 L76.9294178,3.53909609 L76.9294178,3.67264109 C76.8068737,3.72483109 76.6807478,3.76320609 76.5518078,3.78776609 L76.5518078,6.52313616 L77.0816387,6.52313616 C77.0816387,6.58453616 77.0783128,6.65591367 77.0721728,6.73726867 C77.0660328,6.81862367 77.058102,6.90304867 77.048892,6.99054367 C77.039682,7.07803868 77.0297045,7.16220784 77.0187037,7.24381868 C77.0079587,7.32517368 76.9961903,7.39655118 76.9836545,7.45795119 L76.8672503,7.45795119 L76.6671887,6.76259617 L73.9133986,6.76259617 Z" id="Fill-1" fill="#000000" sketch:type="MSShapeGroup"></path>
                <path d="M78.4077252,4.60750728 C78.2324794,4.60750728 78.0991902,4.66660478 78.0070902,4.78454395 C77.9147344,4.90299479 77.8594744,5.11098729 77.8410544,5.4087773 L78.8544102,5.4087773 C78.8574802,5.38089147 78.8597827,5.3542848 78.8610619,5.32793397 C78.8625969,5.3020948 78.8633644,5.2767673 78.8633644,5.2522073 C78.8633644,5.05572729 78.8267802,4.89915729 78.7531002,4.78249729 C78.6794202,4.66583728 78.5640394,4.60750728 78.4077252,4.60750728 L78.4077252,4.60750728 Z M79.2504402,6.44029733 C79.2256244,6.49248733 79.1875052,6.54160733 79.1353152,6.58765733 C79.0831252,6.63370733 79.0230044,6.67361733 78.9557202,6.70738733 C78.8881802,6.74115733 78.8145002,6.767764 78.7344244,6.787719 C78.6548602,6.80792984 78.5732494,6.81790734 78.4903594,6.81790734 C78.3092294,6.81790734 78.1495894,6.789254 78.0114394,6.73271483 C77.8735452,6.67591983 77.7584202,6.59456483 77.6663202,6.48864983 C77.5739643,6.38247899 77.5043777,6.25584149 77.4565368,6.10873732 C77.4092077,5.96137731 77.3854152,5.79559731 77.3854152,5.61139731 C77.3854152,5.2184373 77.4757243,4.91911229 77.6568543,4.71342228 C77.8379844,4.50773228 78.0943294,4.40488728 78.4258894,4.40488728 C78.5333394,4.40488728 78.6392544,4.41946978 78.7436344,4.44863478 C78.8482702,4.47779978 78.9411377,4.52615228 79.0222369,4.59369228 C79.1038477,4.66123228 79.1698527,4.75102978 79.2205077,4.86308479 C79.2711627,4.97513979 79.2964902,5.11380146 79.2964902,5.2798373 C79.2964902,5.3320273 79.2941877,5.3849848 79.2893269,5.4387098 C79.2849777,5.4924348 79.2765352,5.5499973 79.2642552,5.61139731 L77.8272394,5.61139731 C77.8272394,5.74033731 77.8436127,5.86057898 77.8758477,5.97288982 C77.9080827,6.08494482 77.9561794,6.18241732 78.0206494,6.26505149 C78.0851194,6.34819732 78.1667302,6.41343483 78.2647144,6.46101983 C78.3629544,6.50860483 78.4780794,6.5321415 78.6103452,6.5321415 C78.7177952,6.5321415 78.8267802,6.51704733 78.9370444,6.48634733 C79.0478202,6.45564733 79.1304544,6.41573733 79.1859702,6.36661732 L79.2504402,6.44029733 Z" id="Fill-3" fill="#000000" sketch:type="MSShapeGroup"></path>
                <path d="M80.7286964,6.76259617 L79.7386214,6.76259617 L79.7386214,6.64747117 C79.7816014,6.62291116 79.8289306,6.60218866 79.8811206,6.58530366 C79.9335664,6.56841866 79.9872914,6.55230116 80.0422956,6.53695116 L80.0422956,4.69034612 C79.9872914,4.67499612 79.9335664,4.65887862 79.8811206,4.64199362 C79.8289306,4.62536445 79.7816014,4.60438611 79.7386214,4.57982611 L79.7386214,4.46009611 L80.7286964,4.46009611 L80.7286964,4.57982611 C80.6580864,4.62280611 80.5675214,4.65964612 80.4570014,4.69034612 L80.4570014,5.49622114 L81.4793114,5.49622114 L81.4793114,4.69034612 C81.3718614,4.67192612 81.2795056,4.63508612 81.2030114,4.57982611 L81.2030114,4.46009611 L82.1976915,4.46009611 L82.1976915,4.57982611 C82.1148015,4.63201612 82.0132356,4.66885612 81.8937615,4.69034612 L81.8937615,6.53695116 C81.9490215,6.54923116 82.0024906,6.56304616 82.0549365,6.57839616 C82.1071265,6.59374616 82.1544556,6.617027 82.1976915,6.64747117 L82.1976915,6.76259617 L81.2030114,6.76259617 L81.2030114,6.64747117 C81.2795056,6.59221116 81.3718614,6.55537116 81.4793114,6.53695116 L81.4793114,5.69884114 L80.4570014,5.69884114 L80.4570014,6.53695116 C80.5184014,6.54923116 80.5705914,6.56458116 80.6135714,6.58300116 C80.6565514,6.60142116 80.6946706,6.62291116 80.7286964,6.64747117 L80.7286964,6.76259617 Z" id="Fill-5" fill="#000000" sketch:type="MSShapeGroup"></path>
                <path d="M84.0765315,6.76259617 L83.0542215,6.76259617 L83.0542215,6.64747117 C83.1493915,6.59835116 83.2504457,6.56151116 83.3581515,6.53695116 L83.3581515,4.66271612 L82.9206765,4.66271612 L82.7231731,5.21531613 L82.6062573,5.21531613 C82.5911631,5.08356196 82.579139,4.95359862 82.5701848,4.82619362 C82.5612306,4.69904445 82.5553465,4.57675611 82.5522765,4.46009611 L84.5784765,4.46009611 C84.5754065,4.57061611 84.5702899,4.69111362 84.5626149,4.82158862 C84.5551957,4.95206362 84.542404,5.08356196 84.5244957,5.21531613 L84.4078357,5.21531613 L84.2100765,4.66271612 L83.7728573,4.66271612 L83.7728573,6.53695116 C83.9168915,6.57379116 84.0182015,6.61063116 84.0765315,6.64747117 L84.0765315,6.76259617 Z" id="Fill-7" fill="#000000" sketch:type="MSShapeGroup"></path>
                <path d="M86.1624175,4.69044845 C86.0119875,4.69044845 85.8922575,4.73803345 85.8032275,4.83320345 C85.7141975,4.92837346 85.6512625,5.05859263 85.6144225,5.22462846 L85.6144225,6.5140285 C85.6696825,6.5477985 85.73185,6.57287016 85.800925,6.590011 C85.87,6.60664016 85.9597975,6.61508266 86.0705733,6.61508266 C86.1716275,6.61508266 86.2632158,6.5892435 86.344315,6.5370535 C86.42567,6.48486349 86.494745,6.41118349 86.55154,6.31601349 C86.608335,6.22058765 86.6520825,6.10955599 86.6827825,5.98215098 C86.7134825,5.85474598 86.7288325,5.71429348 86.7288325,5.56053764 C86.7288325,5.43492347 86.718855,5.31903097 86.6991558,5.21311596 C86.678945,5.10720096 86.64671,5.01510096 86.602195,4.93681596 C86.55768,4.85827512 86.49935,4.79789845 86.427205,4.75491845 C86.35506,4.71193845 86.2667975,4.69044845 86.1624175,4.69044845 L86.1624175,4.69044845 Z M85.9183525,7.68344269 L84.8960424,7.68344269 L84.8960424,7.56857352 C85.0004224,7.51945352 85.1017324,7.48235769 85.1999725,7.45779769 L85.1999725,4.72728845 L84.8960424,4.69044845 L84.8960424,4.57046261 C84.9945383,4.52748261 85.0948249,4.49320094 85.19767,4.46710594 C85.300515,4.44075511 85.4010575,4.42003261 85.4992975,4.40493844 L85.6144225,4.40493844 L85.6144225,4.92044262 L85.6190275,4.92044262 C85.6804275,4.76412845 85.7663875,4.63902595 85.8769075,4.54539095 C85.9874275,4.45150011 86.1317175,4.40493844 86.3097775,4.40493844 C86.5832633,4.40493844 86.7948375,4.49524761 86.9455233,4.67637762 C87.0956975,4.85750762 87.1709125,5.15248346 87.1709125,5.56053764 C87.1709125,5.75394764 87.145585,5.92919348 87.0951858,6.08550765 C87.044275,6.24207766 86.97213,6.37434349 86.878495,6.48179349 C86.78486,6.5892435 86.67127,6.6721335 86.537725,6.7304635 C86.40418,6.78853767 86.2560525,6.81770267 86.0933425,6.81770267 C85.9797525,6.81770267 85.8907225,6.811051 85.8265083,6.79698017 C85.7620383,6.783421 85.6911725,6.7596285 85.6144225,6.7258585 L85.6144225,7.45779769 C85.6635425,7.46419352 85.7126625,7.47570602 85.7620383,7.49233519 C85.8109025,7.50947602 85.8630925,7.53454769 85.9183525,7.56857352 L85.9183525,7.68344269 Z" id="Fill-9" fill="#000000" sketch:type="MSShapeGroup"></path>
                <path d="M89.979937,4.69044845 C89.829507,4.69044845 89.709777,4.73803345 89.620747,4.83320345 C89.531717,4.92837346 89.468782,5.05859263 89.431942,5.22462846 L89.431942,6.5140285 C89.487202,6.5477985 89.5493695,6.57287016 89.6184445,6.590011 C89.6875195,6.60664016 89.777317,6.61508266 89.8880928,6.61508266 C89.989147,6.61508266 90.0807353,6.5892435 90.1618345,6.5370535 C90.2431895,6.48486349 90.3122645,6.41118349 90.3690595,6.31601349 C90.4258545,6.22058765 90.469602,6.10955599 90.500302,5.98215098 C90.531002,5.85474598 90.546352,5.71429348 90.546352,5.56053764 C90.546352,5.43492347 90.5363745,5.31903097 90.5166753,5.21311596 C90.4964645,5.10720096 90.4642295,5.01510096 90.4197145,4.93681596 C90.3751995,4.85827512 90.3168695,4.79789845 90.2447245,4.75491845 C90.1725795,4.71193845 90.084317,4.69044845 89.979937,4.69044845 L89.979937,4.69044845 Z M89.735872,7.68344269 L88.713562,7.68344269 L88.713562,7.56857352 C88.817942,7.51945352 88.919252,7.48235769 89.017492,7.45779769 L89.017492,4.72728845 L88.713562,4.69044845 L88.713562,4.57046261 C88.8120578,4.52748261 88.9123445,4.49320094 89.0151895,4.46710594 C89.1180345,4.44075511 89.218577,4.42003261 89.316817,4.40493844 L89.431942,4.40493844 L89.431942,4.92044262 L89.436547,4.92044262 C89.497947,4.76412845 89.583907,4.63902595 89.694427,4.54539095 C89.804947,4.45150011 89.949237,4.40493844 90.127297,4.40493844 C90.4007828,4.40493844 90.612357,4.49524761 90.7630428,4.67637762 C90.913217,4.85750762 90.988432,5.15248346 90.988432,5.56053764 C90.988432,5.75394764 90.9631045,5.92919348 90.9127053,6.08550765 C90.8617945,6.24207766 90.7896495,6.37434349 90.6960145,6.48179349 C90.6023795,6.5892435 90.4887895,6.6721335 90.3552445,6.7304635 C90.2216995,6.78853767 90.073572,6.81770267 89.910862,6.81770267 C89.797272,6.81770267 89.708242,6.811051 89.6440278,6.79698017 C89.5795578,6.783421 89.508692,6.7596285 89.431942,6.7258585 L89.431942,7.45779769 C89.481062,7.46419352 89.530182,7.47570602 89.5795578,7.49233519 C89.628422,7.50947602 89.680612,7.53454769 89.735872,7.56857352 L89.735872,7.68344269 Z" id="Fill-11" fill="#000000" sketch:type="MSShapeGroup"></path>
                <path d="M92.4345811,4.60750728 C92.2593353,4.60750728 92.1260461,4.66660478 92.0339461,4.78454395 C91.9415903,4.90299479 91.8863303,5.11098729 91.8679103,5.4087773 L92.8812661,5.4087773 C92.8843361,5.38089147 92.8866386,5.3542848 92.8879178,5.32793397 C92.8894528,5.3020948 92.8902203,5.2767673 92.8902203,5.2522073 C92.8902203,5.05572729 92.8536361,4.89915729 92.7799561,4.78249729 C92.7062761,4.66583728 92.5908953,4.60750728 92.4345811,4.60750728 L92.4345811,4.60750728 Z M93.2772962,6.44029733 C93.2524803,6.49248733 93.2143611,6.54160733 93.1621711,6.58765733 C93.1099811,6.63370733 93.0498603,6.67361733 92.9825761,6.70738733 C92.9150361,6.74115733 92.8413561,6.767764 92.7612803,6.787719 C92.6817161,6.80792984 92.6001053,6.81790734 92.5172153,6.81790734 C92.3360853,6.81790734 92.1764453,6.789254 92.0382953,6.73271483 C91.9004011,6.67591983 91.7852761,6.59456483 91.6931761,6.48864983 C91.6008203,6.38247899 91.5312336,6.25584149 91.4833928,6.10873732 C91.4360636,5.96137731 91.4122711,5.79559731 91.4122711,5.61139731 C91.4122711,5.2184373 91.5025803,4.91911229 91.6837103,4.71342228 C91.8648403,4.50773228 92.1211853,4.40488728 92.4527453,4.40488728 C92.5601953,4.40488728 92.6661103,4.41946978 92.7704903,4.44863478 C92.8751261,4.47779978 92.9679936,4.52615228 93.0490928,4.59369228 C93.1307036,4.66123228 93.1967086,4.75102978 93.2473637,4.86308479 C93.2980187,4.97513979 93.3233462,5.11380146 93.3233462,5.2798373 C93.3233462,5.3320273 93.3210437,5.3849848 93.3161828,5.4387098 C93.3118337,5.4924348 93.3033912,5.5499973 93.2911112,5.61139731 L91.8540953,5.61139731 C91.8540953,5.74033731 91.8704686,5.86057898 91.9027036,5.97288982 C91.9349386,6.08494482 91.9830353,6.18241732 92.0475053,6.26505149 C92.1119753,6.34819732 92.1935861,6.41343483 92.2915703,6.46101983 C92.3898103,6.50860483 92.5049353,6.5321415 92.6372011,6.5321415 C92.7446511,6.5321415 92.8536361,6.51704733 92.9639003,6.48634733 C93.0746761,6.45564733 93.1573103,6.41573733 93.2128261,6.36661732 L93.2772962,6.44029733 Z" id="Fill-13" fill="#000000" sketch:type="MSShapeGroup"></path>
                <path d="M94.5849371,6.53224383 C94.6616871,6.53224383 94.7289713,6.51689383 94.7875571,6.48619383 C94.8458871,6.45549383 94.8950071,6.41890966 94.9349171,6.37592966 C94.9745713,6.33294966 95.0068063,6.28920216 95.0316221,6.24443132 C95.0561821,6.19991632 95.0730671,6.16256465 95.0820213,6.13186465 L95.0820213,5.64808381 C94.9042171,5.64808381 94.7583921,5.65729381 94.6445463,5.67571381 C94.5312121,5.69438964 94.4419263,5.72355464 94.3774563,5.76320881 C94.3132421,5.80311881 94.2687271,5.85326215 94.2441671,5.91287131 C94.2193513,5.97273632 94.2070713,6.04129965 94.2070713,6.11804965 C94.2070713,6.24980382 94.2408413,6.35213716 94.3086371,6.42402633 C94.3761771,6.49617133 94.4682771,6.53224383 94.5849371,6.53224383 M95.4737021,6.15923882 C95.4737021,6.22703465 95.4749813,6.28510882 95.4783071,6.33448466 C95.4813771,6.38360466 95.4844471,6.43553883 95.4872613,6.49105466 L95.8052621,6.53710466 L95.8052621,6.63355383 C95.7285121,6.67371967 95.6433196,6.70876883 95.5496846,6.73972467 C95.4557938,6.77042467 95.3662521,6.79344967 95.2802921,6.80854384 L95.1651671,6.80854384 C95.1342113,6.73818967 95.1157913,6.66067217 95.1099071,6.57624716 C95.1035113,6.49182216 95.0991621,6.39895466 95.0960921,6.29738882 L95.0730671,6.29738882 C95.0605313,6.35878882 95.0369946,6.42095633 95.0016896,6.48414716 C94.9661288,6.54708216 94.9203346,6.60285383 94.8635396,6.65222967 C94.8064888,6.70109383 94.7397163,6.74100383 94.6632221,6.77195967 C94.5864721,6.80265967 94.4989771,6.81775384 94.4004813,6.81775384 C94.2134671,6.81775384 94.0604788,6.76121467 93.9422838,6.64736883 C93.8240887,6.53403466 93.7652471,6.38513966 93.7652471,6.20068382 C93.7652471,6.05946382 93.7933887,5.94357131 93.8504396,5.85326215 C93.9072346,5.76244131 93.9908921,5.69131964 94.1011563,5.63912964 C94.2119321,5.58693964 94.3482913,5.5490763 94.5112571,5.5260513 C94.6739671,5.50328214 94.8627721,5.4853738 95.0776721,5.4730938 C95.0899521,5.34133963 95.0935338,5.2221213 95.0891846,5.11646213 C95.0845796,5.01054712 95.0676946,4.91972629 95.0382738,4.84451129 C95.0091088,4.76929629 94.9661288,4.71122212 94.9095896,4.66977712 C94.8527946,4.62833212 94.7783471,4.60760961 94.6862471,4.60760961 C94.6432671,4.60760961 94.5946588,4.60965628 94.5411896,4.61426128 C94.4874646,4.61886628 94.4345071,4.63191378 94.3823171,4.65340378 L94.1656263,5.2060038 L94.0461521,5.2060038 C94.0151963,5.11390379 93.9885896,5.01898962 93.9655646,4.92049379 C93.9422838,4.82225379 93.9279571,4.72554878 93.9218171,4.63037878 C94.0382213,4.55976878 94.1681846,4.50450878 94.3109396,4.46459878 C94.4534388,4.42494461 94.6123113,4.40498961 94.7875571,4.40498961 C94.9438713,4.40498961 95.0692296,4.42699128 95.1628646,4.47150628 C95.2564996,4.51602128 95.3276213,4.57383961 95.3769971,4.64419378 C95.4258613,4.71480378 95.4580963,4.79308879 95.4737021,4.87904879 C95.4887963,4.96500879 95.4964713,5.05122463 95.4964713,5.13718463 C95.4964713,5.32138463 95.4928896,5.4984213 95.4852146,5.66880631 C95.4772838,5.83919131 95.4737021,6.00292465 95.4737021,6.15923882" id="Fill-15" fill="#000000" sketch:type="MSShapeGroup"></path>
                <path d="M96.5786207,5.55861889 C96.5786207,5.75177306 96.5962732,5.9147389 96.6315782,6.04802807 C96.6668832,6.18131724 96.7152357,6.28979057 96.7766357,6.37421558 C96.8382916,6.45838474 96.9094132,6.51952891 96.9907682,6.55764808 C97.0721232,6.59627891 97.1573157,6.61521058 97.2463458,6.61521058 C97.4305458,6.61521058 97.5694633,6.53257641 97.6630983,6.36705224 C97.7567333,6.20203974 97.8035508,5.9661614 97.8035508,5.65992889 C97.8035508,5.34755638 97.7439416,5.11909721 97.6239558,4.97531887 C97.5042258,4.8312847 97.3387016,4.75939553 97.1268716,4.75939553 C97.0467957,4.75939553 96.9600682,4.78395554 96.8664332,4.8328197 C96.7727982,4.8819397 96.6937457,4.94768887 96.6292757,5.03057888 C96.6139257,5.10681721 96.6016457,5.18740471 96.5926916,5.27157388 C96.5834816,5.35574305 96.5786207,5.45142472 96.5786207,5.55861889 M96.1460066,5.55606055 C96.1460066,5.16310054 96.1782416,4.83384304 96.2429674,4.56828803 C96.3071816,4.30273302 96.4049099,4.08936802 96.5358966,3.92819301 C96.6666274,3.76701801 96.8318957,3.65266051 97.0319574,3.58512051 C97.2320191,3.5175805 97.4658508,3.4838105 97.7337083,3.4838105 L98.0335449,3.2535605 L98.1535308,3.2535605 C98.1507166,3.3088205 98.1443208,3.367918 98.1351108,3.430853 C98.1259008,3.493788 98.1143883,3.553653 98.1005733,3.61044801 C98.0867583,3.66724301 98.0726874,3.71713051 98.0588724,3.76011051 C98.0450574,3.80334634 98.0335449,3.83379051 98.0243349,3.85221051 C97.7411274,3.85221051 97.5008999,3.86602551 97.3041641,3.89365551 C97.1069166,3.92128551 96.9439507,3.97808052 96.8147549,4.06404052 C96.6853032,4.15000052 96.5875749,4.27433552 96.5213141,4.43704553 C96.4553091,4.59975553 96.4115616,4.81465554 96.3900716,5.08174554 L96.4130966,5.08174554 C96.4499366,5.00192554 96.4998241,4.92517554 96.5630149,4.85149554 C96.6262057,4.77781554 96.6983507,4.71334553 96.7799616,4.65808553 C96.8613166,4.60282553 96.9482999,4.55831053 97.0409116,4.52454053 C97.1330116,4.49077053 97.2269024,4.47388553 97.3223283,4.47388553 C97.9501433,4.47388553 98.2640508,4.84996054 98.2640508,5.60211056 C98.2640508,5.78017056 98.2394908,5.94364806 98.1903708,6.09254307 C98.1409949,6.24143807 98.0688499,6.36961057 97.9734241,6.47706058 C97.8779983,6.58451058 97.7626174,6.66816808 97.6272816,6.72803308 C97.4916899,6.78789809 97.3397249,6.81783059 97.1703632,6.81783059 C97.0166074,6.81783059 96.8764107,6.78943309 96.7502849,6.73263808 C96.6244149,6.67584308 96.5164532,6.59295308 96.4271674,6.48396808 C96.3381374,6.37498308 96.2688066,6.24297307 96.2196866,6.08793807 C96.1703107,5.93290306 96.1460066,5.75586639 96.1460066,5.55606055" id="Fill-17" fill="#000000" sketch:type="MSShapeGroup"></path>
                <path d="M98.6740237,4.46009611 L99.6500279,4.46009611 L99.6500279,4.57982611 C99.6165137,4.59824611 99.5771154,4.61666611 99.5326004,4.63508612 C99.4883412,4.65350612 99.4353837,4.67192612 99.3739837,4.69034612 L99.3739837,5.95211615 L99.3233287,6.38038116 L99.3463537,6.38038116 L99.5259487,6.03500615 L100.511419,4.46009611 L101.133094,4.46009611 L101.133094,4.57982611 C101.034854,4.63508612 100.933544,4.67192612 100.829164,4.69034612 L100.829164,6.53695116 C100.887238,6.55230116 100.942498,6.56841866 100.994944,6.58530366 C101.046878,6.60218866 101.093184,6.62291116 101.133094,6.64747117 L101.133094,6.76259617 L100.156834,6.76259617 L100.156834,6.64747117 C100.242794,6.59835116 100.334638,6.56151116 100.433134,6.53695116 L100.433134,5.21992113 L100.479184,4.85612612 L100.456159,4.85612612 L100.281169,5.20150113 L99.3049087,6.76259617 L98.6740237,6.76259617 L98.6740237,6.64747117 C98.7262137,6.62291116 98.7766129,6.60218866 98.8259887,6.58530366 C98.8751087,6.56841866 98.9255079,6.55230116 98.9776979,6.53695116 L98.9776979,4.69034612 C98.8582237,4.67192612 98.7569137,4.63508612 98.6740237,4.57982611 L98.6740237,4.46009611 Z" id="Fill-19" fill="#000000" sketch:type="MSShapeGroup"></path>
                <path d="M101.832951,6.36659174 C101.875931,6.29291174 101.914306,6.19467174 101.948076,6.07187173 C101.981846,5.94907173 102.010244,5.81399173 102.033269,5.66663172 C102.056294,5.51901589 102.073946,5.36500422 102.086226,5.20382921 C102.098506,5.04265421 102.104646,4.8868517 102.104646,4.7364217 C102.043246,4.7180017 101.987475,4.6949767 101.936564,4.66709087 C101.885909,4.6397167 101.839091,4.6105517 101.796111,4.5798517 L101.796111,4.46012169 L103.679812,4.46012169 L103.679812,4.5798517 C103.581316,4.63485587 103.480006,4.6719517 103.375626,4.6903717 L103.375626,6.53697675 C103.440096,6.55232675 103.496891,6.56921175 103.546011,6.58763175 C103.595387,6.60605175 103.639646,6.62600675 103.679812,6.64749675 L103.679812,6.76262175 L102.689737,6.76262175 L102.689737,6.64749675 C102.763417,6.59530675 102.853726,6.55846675 102.961176,6.53697675 L102.961176,4.6627417 L102.353316,4.6627417 C102.350246,4.8254517 102.341036,4.99813921 102.325942,5.18080421 C102.310336,5.36346922 102.287311,5.54306422 102.256611,5.71958923 C102.225911,5.89611423 102.186001,6.06189423 102.136881,6.21692924 C102.087761,6.37196424 102.028152,6.50167174 101.957286,6.60605175 C101.899212,6.69508175 101.836277,6.75724925 101.768481,6.79255425 C101.700941,6.82785925 101.638006,6.83937175 101.579932,6.82709175 C101.533626,6.77490175 101.489879,6.70659425 101.448434,6.62216925 C101.407245,6.53774425 101.383196,6.46022674 101.377312,6.38961674 L101.441782,6.27449174 L101.832951,6.36659174 Z" id="Fill-21" fill="#000000" sketch:type="MSShapeGroup"></path>
                <path d="M104.085001,4.46009611 L105.061005,4.46009611 L105.061005,4.57982611 C105.027491,4.59824611 104.988093,4.61666611 104.943578,4.63508612 C104.899319,4.65350612 104.846361,4.67192612 104.784961,4.69034612 L104.784961,5.95211615 L104.734306,6.38038116 L104.757331,6.38038116 L104.936926,6.03500615 L105.922396,4.46009611 L106.544071,4.46009611 L106.544071,4.57982611 C106.445831,4.63508612 106.344521,4.67192612 106.240141,4.69034612 L106.240141,6.53695116 C106.298215,6.55230116 106.353475,6.56841866 106.405921,6.58530366 C106.457855,6.60218866 106.504161,6.62291116 106.544071,6.64747117 L106.544071,6.76259617 L105.567811,6.76259617 L105.567811,6.64747117 C105.653771,6.59835116 105.745615,6.56151116 105.844111,6.53695116 L105.844111,5.21992113 L105.890161,4.85612612 L105.867136,4.85612612 L105.692146,5.20150113 L104.715886,6.76259617 L104.085001,6.76259617 L104.085001,6.64747117 C104.137191,6.62291116 104.18759,6.60218866 104.236966,6.58530366 C104.286086,6.56841866 104.336485,6.55230116 104.388675,6.53695116 L104.388675,4.69034612 C104.269201,4.67192612 104.167891,4.63508612 104.085001,4.57982611 L104.085001,4.46009611 Z" id="Fill-23" fill="#000000" sketch:type="MSShapeGroup"></path>
                <path d="M108.422655,6.76259617 L107.400345,6.76259617 L107.400345,6.64747117 C107.495515,6.59835116 107.59657,6.56151116 107.704275,6.53695116 L107.704275,4.66271612 L107.2668,4.66271612 L107.069297,5.21531613 L106.952381,5.21531613 C106.937287,5.08356196 106.925263,4.95359862 106.916309,4.82619362 C106.907355,4.69904445 106.90147,4.57675611 106.8984,4.46009611 L108.9246,4.46009611 C108.92153,4.57061611 108.916414,4.69111362 108.908739,4.82158862 C108.90132,4.95206362 108.888528,5.08356196 108.87062,5.21531613 L108.75396,5.21531613 L108.5562,4.66271612 L108.118981,4.66271612 L108.118981,6.53695116 C108.263015,6.57379116 108.364325,6.61063116 108.422655,6.64747117 L108.422655,6.76259617 Z" id="Fill-25" fill="#000000" sketch:type="MSShapeGroup"></path>
                <path d="M110.09908,6.53224383 C110.17583,6.53224383 110.243114,6.51689383 110.3017,6.48619383 C110.36003,6.45549383 110.40915,6.41890966 110.44906,6.37592966 C110.488714,6.33294966 110.520949,6.28920216 110.545765,6.24443132 C110.570325,6.19991632 110.58721,6.16256465 110.596164,6.13186465 L110.596164,5.64808381 C110.41836,5.64808381 110.272535,5.65729381 110.158689,5.67571381 C110.045355,5.69438964 109.956069,5.72355464 109.891599,5.76320881 C109.827385,5.80311881 109.78287,5.85326215 109.75831,5.91287131 C109.733494,5.97273632 109.721214,6.04129965 109.721214,6.11804965 C109.721214,6.24980382 109.754984,6.35213716 109.82278,6.42402633 C109.89032,6.49617133 109.98242,6.53224383 110.09908,6.53224383 M110.987845,6.15923882 C110.987845,6.22703465 110.989124,6.28510882 110.99245,6.33448466 C110.99552,6.38360466 110.99859,6.43553883 111.001404,6.49105466 L111.319405,6.53710466 L111.319405,6.63355383 C111.242655,6.67371967 111.157463,6.70876883 111.063828,6.73972467 C110.969937,6.77042467 110.880395,6.79344967 110.794435,6.80854384 L110.67931,6.80854384 C110.648354,6.73818967 110.629934,6.66067217 110.62405,6.57624716 C110.617654,6.49182216 110.613305,6.39895466 110.610235,6.29738882 L110.58721,6.29738882 C110.574674,6.35878882 110.551138,6.42095633 110.515833,6.48414716 C110.480272,6.54708216 110.434478,6.60285383 110.377683,6.65222967 C110.320632,6.70109383 110.253859,6.74100383 110.177365,6.77195967 C110.100615,6.80265967 110.01312,6.81775384 109.914624,6.81775384 C109.72761,6.81775384 109.574622,6.76121467 109.456427,6.64736883 C109.338232,6.53403466 109.27939,6.38513966 109.27939,6.20068382 C109.27939,6.05946382 109.307532,5.94357131 109.364583,5.85326215 C109.421378,5.76244131 109.505035,5.69131964 109.615299,5.63912964 C109.726075,5.58693964 109.862434,5.5490763 110.0254,5.5260513 C110.18811,5.50328214 110.376915,5.4853738 110.591815,5.4730938 C110.604095,5.34133963 110.607677,5.2221213 110.603328,5.11646213 C110.598723,5.01054712 110.581838,4.91972629 110.552417,4.84451129 C110.523252,4.76929629 110.480272,4.71122212 110.423733,4.66977712 C110.366938,4.62833212 110.29249,4.60760961 110.20039,4.60760961 C110.15741,4.60760961 110.108802,4.60965628 110.055333,4.61426128 C110.001608,4.61886628 109.94865,4.63191378 109.89646,4.65340378 L109.679769,5.2060038 L109.560295,5.2060038 C109.529339,5.11390379 109.502733,5.01898962 109.479708,4.92049379 C109.456427,4.82225379 109.4421,4.72554878 109.43596,4.63037878 C109.552364,4.55976878 109.682328,4.50450878 109.825083,4.46459878 C109.967582,4.42494461 110.126454,4.40498961 110.3017,4.40498961 C110.458014,4.40498961 110.583373,4.42699128 110.677008,4.47150628 C110.770643,4.51602128 110.841764,4.57383961 110.89114,4.64419378 C110.940004,4.71480378 110.972239,4.79308879 110.987845,4.87904879 C111.002939,4.96500879 111.010614,5.05122463 111.010614,5.13718463 C111.010614,5.32138463 111.007033,5.4984213 110.999358,5.66880631 C110.991427,5.83919131 110.987845,6.00292465 110.987845,6.15923882" id="Fill-27" fill="#000000" sketch:type="MSShapeGroup"></path>
                <path d="M111.650812,6.76259617 L111.650812,6.64747117 C111.733702,6.59835116 111.835012,6.56151116 111.954486,6.53695116 L111.954486,4.69034612 C111.837826,4.67192612 111.736772,4.63508612 111.650812,4.57982611 L111.650812,4.46009611 L112.640887,4.46009611 L112.640887,4.57982611 C112.570277,4.62280611 112.479712,4.65964612 112.369192,4.69034612 L112.369192,6.55997616 L113.340591,6.55997616 L113.340591,4.69034612 C113.257957,4.67192612 113.167392,4.63508612 113.069152,4.57982611 L113.069152,4.46009611 L114.059227,4.46009611 L114.059227,4.57982611 C114.019317,4.60131611 113.974802,4.62127111 113.925682,4.63969112 C113.876562,4.65811112 113.819767,4.67499612 113.755297,4.69034612 L113.755297,6.55997616 L114.165142,6.55997616 C114.159258,6.70733617 114.152094,6.85469617 114.144675,7.00205617 C114.137,7.14941618 114.127278,7.29677618 114.115254,7.44413618 L114.001408,7.44413618 L113.796742,6.76259617 L111.650812,6.76259617 Z" id="Fill-29" fill="#000000" sketch:type="MSShapeGroup"></path>
                <path d="M114.524434,4.46009611 L115.500438,4.46009611 L115.500438,4.57982611 C115.466924,4.59824611 115.427526,4.61666611 115.383011,4.63508612 C115.338752,4.65350612 115.285794,4.67192612 115.224394,4.69034612 L115.224394,5.95211615 L115.173739,6.38038116 L115.196764,6.38038116 L115.376359,6.03500615 L116.361829,4.46009611 L116.983504,4.46009611 L116.983504,4.57982611 C116.885264,4.63508612 116.783954,4.67192612 116.679574,4.69034612 L116.679574,6.53695116 C116.737648,6.55230116 116.792908,6.56841866 116.845354,6.58530366 C116.897288,6.60218866 116.943594,6.62291116 116.983504,6.64747117 L116.983504,6.76259617 L116.007244,6.76259617 L116.007244,6.64747117 C116.093204,6.59835116 116.185048,6.56151116 116.283544,6.53695116 L116.283544,5.21992113 L116.329594,4.85612612 L116.306569,4.85612612 L116.131579,5.20150113 L115.155319,6.76259617 L114.524434,6.76259617 L114.524434,6.64747117 C114.576624,6.62291116 114.627023,6.60218866 114.676399,6.58530366 C114.725519,6.56841866 114.775918,6.55230116 114.828108,6.53695116 L114.828108,4.69034612 C114.708634,4.67192612 114.607324,4.63508612 114.524434,4.57982611 L114.524434,4.46009611 Z" id="Fill-31" fill="#000000" sketch:type="MSShapeGroup"></path>
                <path d="M117.388565,4.46009611 L118.364569,4.46009611 L118.364569,4.57982611 C118.331055,4.59824611 118.291657,4.61666611 118.247142,4.63508612 C118.202883,4.65350612 118.149925,4.67192612 118.088525,4.69034612 L118.088525,5.95211615 L118.03787,6.38038116 L118.060895,6.38038116 L118.24049,6.03500615 L119.22596,4.46009611 L119.847635,4.46009611 L119.847635,4.57982611 C119.749395,4.63508612 119.648085,4.67192612 119.543705,4.69034612 L119.543705,6.53695116 C119.601779,6.55230116 119.657039,6.56841866 119.709485,6.58530366 C119.761419,6.60218866 119.807725,6.62291116 119.847635,6.64747117 L119.847635,6.76259617 L118.871375,6.76259617 L118.871375,6.64747117 C118.957335,6.59835116 119.049179,6.56151116 119.147675,6.53695116 L119.147675,5.21992113 L119.193725,4.85612612 L119.1707,4.85612612 L118.99571,5.20150113 L118.01945,6.76259617 L117.388565,6.76259617 L117.388565,6.64747117 C117.440755,6.62291116 117.491154,6.60218866 117.54053,6.58530366 C117.58965,6.56841866 117.640049,6.55230116 117.692239,6.53695116 L117.692239,4.69034612 C117.572765,4.67192612 117.471455,4.63508612 117.388565,4.57982611 L117.388565,4.46009611 Z" id="Fill-33" fill="#000000" sketch:type="MSShapeGroup"></path>
                <path d="M74.9494724,10.8559296 L73.9593974,10.8559296 L73.9593974,10.7408046 C74.0023774,10.7162446 74.0497066,10.6955221 74.1018966,10.6786371 C74.1543424,10.6617521 74.2080674,10.6456346 74.2630716,10.6302846 L74.2630716,8.78367955 C74.2080674,8.76832955 74.1543424,8.75221205 74.1018966,8.73532705 C74.0497066,8.71869788 74.0023774,8.69771955 73.9593974,8.67315955 L73.9593974,8.55342955 L74.9494724,8.55342955 L74.9494724,8.67315955 C74.8788624,8.71613955 74.7882974,8.75297955 74.6777774,8.78367955 L74.6777774,9.58955457 L75.7000875,9.58955457 L75.7000875,8.78367955 C75.5926375,8.76525955 75.5002816,8.72841955 75.4237875,8.67315955 L75.4237875,8.55342955 L76.4184675,8.55342955 L76.4184675,8.67315955 C76.3355775,8.72534955 76.2340116,8.76218955 76.1145375,8.78367955 L76.1145375,10.6302846 C76.1697975,10.6425646 76.2232666,10.6563796 76.2757125,10.6717296 C76.3279025,10.6870796 76.3752316,10.7103604 76.4184675,10.7408046 L76.4184675,10.8559296 L75.4237875,10.8559296 L75.4237875,10.7408046 C75.5002816,10.6855446 75.5926375,10.6487046 75.7000875,10.6302846 L75.7000875,9.79217458 L74.6777774,9.79217458 L74.6777774,10.6302846 C74.7391774,10.6425646 74.7913674,10.6579146 74.8343474,10.6763346 C74.8773274,10.6947546 74.9154466,10.7162446 74.9494724,10.7408046 L74.9494724,10.8559296 Z" id="Fill-35" fill="#000000" sketch:type="MSShapeGroup"></path>
                <path d="M77.2749463,9.70467957 C77.2749463,9.84282958 77.2879938,9.97330458 77.3140888,10.0961046 C77.3401838,10.2189046 77.3816288,10.3255871 77.4386797,10.4161521 C77.4952188,10.5067171 77.5696663,10.5780946 77.6617663,10.6302846 C77.7538663,10.6824746 77.8643864,10.7085696 77.9935822,10.7085696 C78.1591064,10.7085696 78.2949539,10.6272146 78.4008689,10.4645046 C78.5067839,10.3017946 78.5597414,10.0485196 78.5597414,9.70467957 C78.5597414,9.56345957 78.5466939,9.4324729 78.5205989,9.31095206 C78.4945039,9.18968706 78.4538264,9.08377206 78.3988222,8.99320706 C78.3433064,8.90264205 78.2726964,8.83126455 78.1867364,8.77907455 C78.1010322,8.72688455 77.9979314,8.70078955 77.8782014,8.70078955 C77.6970713,8.70078955 77.5512463,8.78240038 77.4407263,8.94485456 C77.3302063,9.10756456 77.2749463,9.36083957 77.2749463,9.70467957 M76.8328663,9.70467957 C76.8328663,9.51126957 76.8581938,9.34011707 76.9088488,9.19122206 C76.9597597,9.04232706 77.0324163,8.91645705 77.1275863,8.81361205 C77.2227563,8.71076705 77.3371138,8.63273788 77.4709147,8.57875705 C77.6042038,8.52528788 77.7523313,8.49816954 77.9150414,8.49816954 C78.1053814,8.49816954 78.2696264,8.52733455 78.4077764,8.58566455 C78.5459264,8.64399455 78.6587489,8.72611705 78.7462439,8.83203205 C78.8337389,8.93794706 78.8982089,9.06458456 78.9396539,9.21194456 C78.9810989,9.35930457 79.0018214,9.52354957 79.0018214,9.70467957 C79.0018214,10.0914996 78.9035814,10.3892896 78.7073572,10.5980496 C78.5106214,10.8070654 78.2466014,10.9111896 77.9150414,10.9111896 C77.7308413,10.9111896 77.5712013,10.8825363 77.4361213,10.8259971 C77.3010413,10.7692021 77.1889863,10.6878471 77.0999563,10.5819321 C77.0109263,10.4760171 76.9441538,10.3488679 76.8996388,10.1997171 C76.8551238,10.0510779 76.8328663,9.88580958 76.8328663,9.70467957" id="Fill-37" fill="#000000" sketch:type="MSShapeGroup"></path>
                <path d="M80.1346002,10.6578123 C80.1775802,10.6670223 80.2320727,10.6718831 80.2983336,10.6718831 L80.4615552,10.6718831 C80.6426853,10.6718831 80.7777653,10.6324848 80.8667953,10.5544556 C80.9558253,10.4759148 81.0003403,10.3646273 81.0003403,10.2203373 C81.0003403,10.0699073 80.9466153,9.95734058 80.8391653,9.88212558 C80.7317153,9.80691058 80.5935653,9.76904724 80.4247152,9.76904724 L80.1346002,9.76904724 L80.1346002,10.6578123 Z M80.1346002,9.63089724 L80.6518953,9.58510307 C80.7076669,9.55721724 80.7644619,9.50605057 80.8222803,9.43057973 C80.8795869,9.35536473 80.9082403,9.25635723 80.9082403,9.13355723 C80.9082403,8.98338306 80.8624461,8.87977055 80.7706019,8.82271972 C80.6792694,8.76592472 80.5449569,8.73752722 80.3676644,8.73752722 C80.3333827,8.73752722 80.2944961,8.73829472 80.2512602,8.73982972 C80.2075127,8.74162055 80.1688819,8.74673722 80.1346002,8.75594722 L80.1346002,9.63089724 Z M81.4610961,10.1834973 C81.4610961,10.3065531 81.4329544,10.4114448 81.3774386,10.4991956 C81.3221786,10.5866906 81.2472194,10.6578123 81.1528169,10.7133281 C81.0589261,10.7685881 80.9501969,10.8092656 80.8266294,10.8351048 C80.7033178,10.8611998 80.5736103,10.8745031 80.4380186,10.8745031 C80.3390111,10.8745031 80.2602144,10.8737356 80.2016286,10.8722006 C80.1430427,10.8704098 80.0936669,10.8681073 80.0535011,10.8652931 C80.0133352,10.8619673 79.9795652,10.8596648 79.9516794,10.8581298 C79.9240494,10.8565948 79.8930936,10.8558273 79.8590677,10.8558273 L79.4162202,10.8558273 L79.4162202,10.7407023 C79.5113902,10.6918381 79.6127002,10.6547423 79.7201502,10.6304381 L79.7201502,8.78383305 C79.6034902,8.76234305 79.5021802,8.72524722 79.4162202,8.67305722 L79.4162202,8.55332721 L79.8311819,8.55332721 C79.9053736,8.55332721 79.9688202,8.55255971 80.0212661,8.55128055 C80.0737119,8.54974555 80.1230877,8.54744305 80.1693936,8.54411721 C80.2156994,8.54130305 80.2620052,8.53900055 80.3085669,8.53720971 C80.3546169,8.53567471 80.4057836,8.53490721 80.4610436,8.53490721 C80.7329944,8.53490721 80.9445686,8.57558471 81.0957661,8.65719555 C81.2472194,8.73829472 81.3229461,8.88053805 81.3229461,9.08315806 C81.3229461,9.15683806 81.3073403,9.22284306 81.2763844,9.28091723 C81.2454286,9.33950307 81.2052628,9.39015807 81.1558869,9.43313807 C81.1065111,9.47611807 81.0507394,9.51193474 80.9890836,9.54135557 C80.9271719,9.57052057 80.8667953,9.59124307 80.8082094,9.60326724 C80.8946811,9.60940724 80.9770594,9.62654807 81.0558561,9.65392224 C81.1343969,9.68180807 81.2039836,9.71915974 81.2641044,9.76700058 C81.3242253,9.81432974 81.3720661,9.87291558 81.4078828,9.94173475 C81.4431878,10.0110656 81.4610961,10.0913973 81.4610961,10.1834973 L81.4610961,10.1834973 Z" id="Fill-39" fill="#000000" sketch:type="MSShapeGroup"></path>
                <path d="M82.344898,9.70467957 C82.344898,9.84282958 82.3579455,9.97330458 82.3840405,10.0961046 C82.4101355,10.2189046 82.4515805,10.3255871 82.5086313,10.4161521 C82.5651705,10.5067171 82.639618,10.5780946 82.731718,10.6302846 C82.823818,10.6824746 82.934338,10.7085696 83.0635338,10.7085696 C83.229058,10.7085696 83.3649055,10.6272146 83.4708205,10.4645046 C83.5767355,10.3017946 83.629693,10.0485196 83.629693,9.70467957 C83.629693,9.56345957 83.6166455,9.4324729 83.5905505,9.31095206 C83.5644555,9.18968706 83.523778,9.08377206 83.4687738,8.99320706 C83.413258,8.90264205 83.342648,8.83126455 83.256688,8.77907455 C83.1709838,8.72688455 83.067883,8.70078955 82.948153,8.70078955 C82.767023,8.70078955 82.621198,8.78240038 82.510678,8.94485456 C82.400158,9.10756456 82.344898,9.36083957 82.344898,9.70467957 M81.902818,9.70467957 C81.902818,9.51126957 81.9281455,9.34011707 81.9788005,9.19122206 C82.0297113,9.04232706 82.102368,8.91645705 82.197538,8.81361205 C82.292708,8.71076705 82.4070655,8.63273788 82.5408663,8.57875705 C82.6741555,8.52528788 82.822283,8.49816954 82.984993,8.49816954 C83.175333,8.49816954 83.339578,8.52733455 83.477728,8.58566455 C83.615878,8.64399455 83.7287005,8.72611705 83.8161955,8.83203205 C83.9036905,8.93794706 83.9681605,9.06458456 84.0096055,9.21194456 C84.0510505,9.35930457 84.071773,9.52354957 84.071773,9.70467957 C84.071773,10.0914996 83.973533,10.3892896 83.7773088,10.5980496 C83.580573,10.8070654 83.316553,10.9111896 82.984993,10.9111896 C82.800793,10.9111896 82.641153,10.8825363 82.506073,10.8259971 C82.370993,10.7692021 82.258938,10.6878471 82.169908,10.5819321 C82.080878,10.4760171 82.0141055,10.3488679 81.9695905,10.1997171 C81.9250755,10.0510779 81.902818,9.88580958 81.902818,9.70467957" id="Fill-41" fill="#000000" sketch:type="MSShapeGroup"></path>
                <path d="M86.2038881,8.55342955 C86.2008181,8.67315955 86.1954456,8.79749455 86.1877706,8.92643456 C86.1800956,9.05537456 86.1670481,9.18277956 86.1486281,9.30864956 L86.0288981,9.30864956 L85.826278,8.75604955 L85.204603,8.75604955 L85.204603,10.6302846 C85.379593,10.6640546 85.517743,10.7011504 85.619053,10.7408046 L85.619053,10.8559296 L84.486223,10.8559296 L84.486223,10.7408046 C84.538413,10.7103604 84.589068,10.6870796 84.638188,10.6717296 C84.687308,10.6563796 84.737963,10.6425646 84.790153,10.6302846 L84.790153,8.77907455 C84.676563,8.76065455 84.575253,8.72534955 84.486223,8.67315955 L84.486223,8.55342955 L86.2038881,8.55342955 Z" id="Fill-43" fill="#000000" sketch:type="MSShapeGroup"></path>
                <path d="M86.9683948,9.70467957 C86.9683948,9.84282958 86.9814423,9.97330458 87.0075373,10.0961046 C87.0336323,10.2189046 87.0750773,10.3255871 87.1321282,10.4161521 C87.1886673,10.5067171 87.2631148,10.5780946 87.3552148,10.6302846 C87.4473148,10.6824746 87.5578348,10.7085696 87.6870307,10.7085696 C87.8525548,10.7085696 87.9884024,10.6272146 88.0943174,10.4645046 C88.2002324,10.3017946 88.2531899,10.0485196 88.2531899,9.70467957 C88.2531899,9.56345957 88.2401424,9.4324729 88.2140474,9.31095206 C88.1879524,9.18968706 88.1472749,9.08377206 88.0922707,8.99320706 C88.0367549,8.90264205 87.9661449,8.83126455 87.8801849,8.77907455 C87.7944807,8.72688455 87.6913798,8.70078955 87.5716498,8.70078955 C87.3905198,8.70078955 87.2446948,8.78240038 87.1341748,8.94485456 C87.0236548,9.10756456 86.9683948,9.36083957 86.9683948,9.70467957 M86.5263148,9.70467957 C86.5263148,9.51126957 86.5516423,9.34011707 86.6022973,9.19122206 C86.6532082,9.04232706 86.7258648,8.91645705 86.8210348,8.81361205 C86.9162048,8.71076705 87.0305623,8.63273788 87.1643632,8.57875705 C87.2976523,8.52528788 87.4457798,8.49816954 87.6084898,8.49816954 C87.7988298,8.49816954 87.9630749,8.52733455 88.1012249,8.58566455 C88.2393749,8.64399455 88.3521974,8.72611705 88.4396924,8.83203205 C88.5271874,8.93794706 88.5916574,9.06458456 88.6331024,9.21194456 C88.6745474,9.35930457 88.6952699,9.52354957 88.6952699,9.70467957 C88.6952699,10.0914996 88.5970299,10.3892896 88.4008057,10.5980496 C88.2040699,10.8070654 87.9400499,10.9111896 87.6084898,10.9111896 C87.4242898,10.9111896 87.2646498,10.8825363 87.1295698,10.8259971 C86.9944898,10.7692021 86.8824348,10.6878471 86.7934048,10.5819321 C86.7043748,10.4760171 86.6376023,10.3488679 86.5930873,10.1997171 C86.5485723,10.0510779 86.5263148,9.88580958 86.5263148,9.70467957" id="Fill-45" fill="#000000" sketch:type="MSShapeGroup"></path>
                <path d="M91.2648344,10.8559296 L90.2747593,10.8559296 L90.2747593,10.7408046 C90.3328335,10.7070346 90.3865585,10.6817071 90.4359343,10.6648221 C90.4847985,10.6481929 90.5326393,10.6366804 90.5784335,10.6302846 L90.5784335,8.78367955 C90.5139635,8.76832955 90.4558893,8.75144455 90.4036993,8.73302455 C90.3515093,8.71460455 90.3085293,8.69464955 90.2747593,8.67315955 L90.2747593,8.55342955 L92.7292244,8.55342955 L92.7292244,8.67315955 C92.6890586,8.69771955 92.6447994,8.72074455 92.5956794,8.74223455 C92.5465594,8.76372455 92.4897644,8.77753955 92.4252944,8.78367955 L92.4252944,10.6302846 C92.5294185,10.6487046 92.6309844,10.6855446 92.7292244,10.7408046 L92.7292244,10.8559296 L91.7391494,10.8559296 L91.7391494,10.7408046 C91.7698494,10.7193146 91.805666,10.6993596 91.847111,10.6809396 C91.888556,10.6625196 91.9430485,10.6456346 92.0108444,10.6302846 L92.0108444,8.75604955 L90.9931393,8.75604955 L90.9931393,10.6302846 C91.0545393,10.6487046 91.1067293,10.6671246 91.1497093,10.6855446 C91.1926893,10.7039646 91.2308085,10.7223846 91.2648344,10.7408046 L91.2648344,10.8559296 Z" id="Fill-47" fill="#000000" sketch:type="MSShapeGroup"></path>
                <path d="M93.5855753,9.70467957 C93.5855753,9.84282958 93.5986228,9.97330458 93.6247178,10.0961046 C93.6508128,10.2189046 93.6922578,10.3255871 93.7493087,10.4161521 C93.8058478,10.5067171 93.8802953,10.5780946 93.9723953,10.6302846 C94.0644953,10.6824746 94.1750153,10.7085696 94.3042112,10.7085696 C94.4697353,10.7085696 94.6055829,10.6272146 94.7114979,10.4645046 C94.8174129,10.3017946 94.8703704,10.0485196 94.8703704,9.70467957 C94.8703704,9.56345957 94.8573229,9.4324729 94.8312279,9.31095206 C94.8051329,9.18968706 94.7644554,9.08377206 94.7094512,8.99320706 C94.6539354,8.90264205 94.5833254,8.83126455 94.4973653,8.77907455 C94.4116612,8.72688455 94.3085603,8.70078955 94.1888303,8.70078955 C94.0077003,8.70078955 93.8618753,8.78240038 93.7513553,8.94485456 C93.6408353,9.10756456 93.5855753,9.36083957 93.5855753,9.70467957 M93.1434953,9.70467957 C93.1434953,9.51126957 93.1688228,9.34011707 93.2194778,9.19122206 C93.2703887,9.04232706 93.3430453,8.91645705 93.4382153,8.81361205 C93.5333853,8.71076705 93.6477428,8.63273788 93.7815437,8.57875705 C93.9148328,8.52528788 94.0629603,8.49816954 94.2256703,8.49816954 C94.4160103,8.49816954 94.5802554,8.52733455 94.7184054,8.58566455 C94.8565554,8.64399455 94.9693779,8.72611705 95.0568729,8.83203205 C95.1443679,8.93794706 95.2088379,9.06458456 95.2502829,9.21194456 C95.2917279,9.35930457 95.3124504,9.52354957 95.3124504,9.70467957 C95.3124504,10.0914996 95.2142104,10.3892896 95.0179862,10.5980496 C94.8212504,10.8070654 94.5572303,10.9111896 94.2256703,10.9111896 C94.0414703,10.9111896 93.8818303,10.8825363 93.7467503,10.8259971 C93.6116703,10.7692021 93.4996153,10.6878471 93.4105853,10.5819321 C93.3215553,10.4760171 93.2547828,10.3488679 93.2102678,10.1997171 C93.1657528,10.0510779 93.1434953,9.88580958 93.1434953,9.70467957" id="Fill-49" fill="#000000" sketch:type="MSShapeGroup"></path>
                <path d="M97.0438281,8.55342955 L97.9328489,8.55342955 L97.9328489,8.67315955 C97.9018931,8.69771955 97.8612156,8.71920955 97.8105606,8.73762955 C97.7601614,8.75604955 97.6979939,8.77753955 97.6243139,8.80209955 C97.5196781,8.92796956 97.4094139,9.05537456 97.2927539,9.18431456 C97.1760939,9.31325456 97.0530381,9.44219457 96.9240981,9.57113457 C96.9916381,9.64481457 97.0630156,9.72616958 97.1382306,9.81519958 C97.2134456,9.90422958 97.2894281,9.99658542 97.3664339,10.0914996 C97.4431839,10.1866696 97.5196781,10.2803046 97.5964281,10.3724046 C97.6731781,10.4645046 97.7483931,10.5504646 97.8220731,10.6302846 L98.0387639,10.7408046 L98.0387639,10.8559296 L97.4997231,10.8559296 L97.3523631,10.7500146 C97.2142131,10.5842346 97.0883431,10.4184546 96.9747531,10.2526746 C96.8611631,10.0868946 96.7460381,9.92418458 96.6296339,9.76454458 L96.4451781,9.76454458 L96.4451781,10.6302846 C96.5065781,10.6456346 96.5626056,10.6617521 96.6132606,10.6786371 C96.6641714,10.6955221 96.7079189,10.7162446 96.7445031,10.7408046 L96.7445031,10.8559296 L95.7270539,10.8559296 L95.7270539,10.7408046 C95.8099439,10.6916846 95.9109981,10.6548446 96.0307281,10.6302846 L96.0307281,8.78367955 C95.9232781,8.76218955 95.8222239,8.72534955 95.7270539,8.67315955 L95.7270539,8.55342955 L96.6708231,8.55342955 L96.6708231,8.67315955 C96.6401231,8.69464955 96.6071206,8.71460455 96.5718156,8.73302455 C96.5367664,8.75144455 96.4945539,8.76832955 96.4451781,8.78367955 L96.4451781,9.64481457 L96.6570081,9.59876457 C96.7798081,9.45754457 96.8967239,9.3257904 97.0069881,9.20273456 C97.1175081,9.08019039 97.2203531,8.94638956 97.3155231,8.80209955 C97.2633331,8.78086538 97.2149806,8.76014288 97.1704656,8.73993205 C97.1259506,8.71997705 97.0837381,8.69771955 97.0438281,8.67315955 L97.0438281,8.55342955 Z" id="Fill-51" fill="#000000" sketch:type="MSShapeGroup"></path>
                <path d="M98.7154943,9.70467957 C98.7154943,9.84282958 98.7285418,9.97330458 98.7546368,10.0961046 C98.7807318,10.2189046 98.8221768,10.3255871 98.8792276,10.4161521 C98.9357668,10.5067171 99.0102143,10.5780946 99.1023143,10.6302846 C99.1944143,10.6824746 99.3049343,10.7085696 99.4341301,10.7085696 C99.5996543,10.7085696 99.7355018,10.6272146 99.8414168,10.4645046 C99.9473318,10.3017946 100.000289,10.0485196 100.000289,9.70467957 C100.000289,9.56345957 99.9872418,9.4324729 99.9611468,9.31095206 C99.9350518,9.18968706 99.8943743,9.08377206 99.8393701,8.99320706 C99.7838543,8.90264205 99.7132443,8.83126455 99.6272843,8.77907455 C99.5415801,8.72688455 99.4384793,8.70078955 99.3187493,8.70078955 C99.1376193,8.70078955 98.9917943,8.78240038 98.8812743,8.94485456 C98.7707543,9.10756456 98.7154943,9.36083957 98.7154943,9.70467957 M98.2734143,9.70467957 C98.2734143,9.51126957 98.2987418,9.34011707 98.3493968,9.19122206 C98.4003076,9.04232706 98.4729643,8.91645705 98.5681343,8.81361205 C98.6633043,8.71076705 98.7776618,8.63273788 98.9114626,8.57875705 C99.0447518,8.52528788 99.1928793,8.49816954 99.3555893,8.49816954 C99.5459293,8.49816954 99.7101743,8.52733455 99.8483243,8.58566455 C99.9864743,8.64399455 100.099297,8.72611705 100.186792,8.83203205 C100.274287,8.93794706 100.338757,9.06458456 100.380202,9.21194456 C100.421647,9.35930457 100.442369,9.52354957 100.442369,9.70467957 C100.442369,10.0914996 100.344129,10.3892896 100.147905,10.5980496 C99.9511693,10.8070654 99.6871493,10.9111896 99.3555893,10.9111896 C99.1713893,10.9111896 99.0117493,10.8825363 98.8766693,10.8259971 C98.7415893,10.7692021 98.6295343,10.6878471 98.5405043,10.5819321 C98.4514743,10.4760171 98.3847018,10.3488679 98.3401868,10.1997171 C98.2956718,10.0510779 98.2734143,9.88580958 98.2734143,9.70467957" id="Fill-53" fill="#000000" sketch:type="MSShapeGroup"></path>
                <path d="M101.151411,10.4599252 C101.194391,10.3862452 101.232766,10.2880052 101.266536,10.1652052 C101.300306,10.0424052 101.328704,9.90732516 101.351729,9.75996516 C101.374754,9.61234932 101.392406,9.45833765 101.404686,9.29716265 C101.416966,9.13598764 101.423106,8.98018514 101.423106,8.82975514 C101.361706,8.81133514 101.305935,8.78831014 101.255024,8.7604243 C101.204369,8.73305013 101.157551,8.70388513 101.114571,8.67318513 L101.114571,8.55345513 L102.998272,8.55345513 L102.998272,8.67318513 C102.899776,8.7281893 102.798466,8.76528513 102.694086,8.78370513 L102.694086,10.6303102 C102.758556,10.6456602 102.815351,10.6625452 102.864471,10.6809652 C102.913847,10.6993852 102.958106,10.7193402 102.998272,10.7408302 L102.998272,10.8559552 L102.008197,10.8559552 L102.008197,10.7408302 C102.081877,10.6886402 102.172186,10.6518002 102.279636,10.6303102 L102.279636,8.75607513 L101.671776,8.75607513 C101.668706,8.91878514 101.659496,9.09147264 101.644402,9.27413765 C101.628796,9.45680265 101.605771,9.63639766 101.575071,9.81292266 C101.544371,9.98944766 101.504461,10.1552277 101.455341,10.3102627 C101.406221,10.4652977 101.346612,10.5950052 101.275746,10.6993852 C101.217672,10.7884152 101.154737,10.8505827 101.086941,10.8858877 C101.019401,10.9211927 100.956466,10.9327052 100.898392,10.9204252 C100.852086,10.8682352 100.808339,10.7999277 100.766894,10.7155027 C100.725705,10.6310777 100.701656,10.5535602 100.695772,10.4829502 L100.760242,10.3678252 L101.151411,10.4599252 Z" id="Fill-55" fill="#000000" sketch:type="MSShapeGroup"></path>
                <path d="M104.435007,8.70084072 C104.259761,8.70084072 104.126472,8.75993822 104.034372,8.87787739 C103.942016,8.99632822 103.886756,9.20432073 103.868336,9.50211074 L104.881692,9.50211074 C104.884762,9.4742249 104.887064,9.44761823 104.888343,9.4212674 C104.889878,9.39542823 104.890646,9.37010073 104.890646,9.34554073 C104.890646,9.14906073 104.854062,8.99249072 104.780382,8.87583072 C104.706702,8.75917072 104.591321,8.70084072 104.435007,8.70084072 L104.435007,8.70084072 Z M105.277722,10.5336308 C105.252906,10.5858208 105.214787,10.6349408 105.162597,10.6809908 C105.110407,10.7270408 105.050286,10.7669508 104.983002,10.8007208 C104.915462,10.8344908 104.841782,10.8610974 104.761706,10.8810524 C104.682142,10.9012633 104.600531,10.9112408 104.517641,10.9112408 C104.336511,10.9112408 104.176871,10.8825874 104.038721,10.8260483 C103.900827,10.7692533 103.785702,10.6878983 103.693602,10.5819833 C103.601246,10.4758124 103.531659,10.3491749 103.483818,10.2020708 C103.436489,10.0547107 103.412697,9.88893075 103.412697,9.70473074 C103.412697,9.31177073 103.503006,9.01244572 103.684136,8.80675572 C103.865266,8.60106571 104.121611,8.49822071 104.453171,8.49822071 C104.560621,8.49822071 104.666536,8.51280321 104.770916,8.54196821 C104.875552,8.57113321 104.968419,8.61948571 105.049518,8.68702572 C105.131129,8.75456572 105.197134,8.84436322 105.247789,8.95641822 C105.298444,9.06847323 105.323772,9.2071349 105.323772,9.37317073 C105.323772,9.42536073 105.321469,9.47831824 105.316608,9.53204324 C105.312259,9.58576824 105.303817,9.64333074 105.291537,9.70473074 L103.854521,9.70473074 C103.854521,9.83367074 103.870894,9.95391241 103.903129,10.0662233 C103.935364,10.1782783 103.983461,10.2757508 104.047931,10.3583849 C104.112401,10.4415308 104.194012,10.5067683 104.291996,10.5543533 C104.390236,10.6019383 104.505361,10.6254749 104.637627,10.6254749 C104.745077,10.6254749 104.854062,10.6103808 104.964326,10.5796808 C105.075102,10.5489808 105.157736,10.5090708 105.213252,10.4599508 L105.277722,10.5336308 Z" id="Fill-57" fill="#000000" sketch:type="MSShapeGroup"></path>
                <path d="M106.756004,10.8559296 L105.765929,10.8559296 L105.765929,10.7408046 C105.808909,10.7162446 105.856238,10.6955221 105.908428,10.6786371 C105.960874,10.6617521 106.014599,10.6456346 106.069603,10.6302846 L106.069603,8.78367955 C106.014599,8.76832955 105.960874,8.75221205 105.908428,8.73532705 C105.856238,8.71869788 105.808909,8.69771955 105.765929,8.67315955 L105.765929,8.55342955 L106.756004,8.55342955 L106.756004,8.67315955 C106.685394,8.71613955 106.594829,8.75297955 106.484309,8.78367955 L106.484309,9.58955457 L107.506619,9.58955457 L107.506619,8.78367955 C107.399169,8.76525955 107.306813,8.72841955 107.230319,8.67315955 L107.230319,8.55342955 L108.224999,8.55342955 L108.224999,8.67315955 C108.142109,8.72534955 108.040543,8.76218955 107.921069,8.78367955 L107.921069,10.6302846 C107.976329,10.6425646 108.029798,10.6563796 108.082244,10.6717296 C108.134434,10.6870796 108.181763,10.7103604 108.224999,10.7408046 L108.224999,10.8559296 L107.230319,10.8559296 L107.230319,10.7408046 C107.306813,10.6855446 107.399169,10.6487046 107.506619,10.6302846 L107.506619,9.79217458 L106.484309,9.79217458 L106.484309,10.6302846 C106.545709,10.6425646 106.597899,10.6579146 106.640879,10.6763346 C106.683859,10.6947546 106.721978,10.7162446 106.756004,10.7408046 L106.756004,10.8559296 Z" id="Fill-59" fill="#000000" sketch:type="MSShapeGroup"></path>
                <path d="M108.630034,8.55342955 L109.606038,8.55342955 L109.606038,8.67315955 C109.572524,8.69157955 109.533126,8.70999955 109.488611,8.72841955 C109.444351,8.74683955 109.391394,8.76525955 109.329994,8.78367955 L109.329994,10.0454496 L109.279339,10.4737146 L109.302364,10.4737146 L109.481959,10.1283396 L110.467429,8.55342955 L111.089104,8.55342955 L111.089104,8.67315955 C110.990864,8.72841955 110.889554,8.76525955 110.785174,8.78367955 L110.785174,10.6302846 C110.843248,10.6456346 110.898508,10.6617521 110.950954,10.6786371 C111.002888,10.6955221 111.049194,10.7162446 111.089104,10.7408046 L111.089104,10.8559296 L110.112844,10.8559296 L110.112844,10.7408046 C110.198804,10.6916846 110.290648,10.6548446 110.389144,10.6302846 L110.389144,9.31325456 L110.435194,8.94945956 L110.412169,8.94945956 L110.237179,9.29483456 L109.260919,10.8559296 L108.630034,10.8559296 L108.630034,10.7408046 C108.682224,10.7162446 108.732623,10.6955221 108.781999,10.6786371 C108.831119,10.6617521 108.881518,10.6456346 108.933708,10.6302846 L108.933708,8.78367955 C108.814234,8.76525955 108.712924,8.72841955 108.630034,8.67315955 L108.630034,8.55342955 Z" id="Fill-61" fill="#000000" sketch:type="MSShapeGroup"></path>
                <path d="M112.857526,8.75604955 C112.817616,8.75016538 112.766194,8.74376955 112.703003,8.73762955 C112.640068,8.73148955 112.587111,8.72841955 112.544131,8.72841955 C112.353791,8.72534955 112.222804,8.76909705 112.150403,8.85966205 C112.078514,8.95022706 112.042186,9.06918956 112.042186,9.21654956 C112.042186,9.36697957 112.098213,9.49054707 112.210524,9.58725207 C112.322323,9.68395707 112.496801,9.73230958 112.733191,9.73230958 L112.857526,9.73230958 L112.857526,8.75604955 Z M111.609571,9.23036456 C111.609571,9.12598456 111.626456,9.03081456 111.659971,8.94485456 C111.693741,8.85889455 111.746698,8.78521455 111.818843,8.72381455 C111.891244,8.66241455 111.983344,8.61406205 112.095399,8.57875705 C112.207454,8.54345205 112.343046,8.52579955 112.502686,8.52579955 C112.539781,8.52579955 112.591204,8.52733455 112.657209,8.53040455 C112.723214,8.53347455 112.793056,8.53680038 112.866736,8.53961455 C112.940161,8.54268455 113.011794,8.54575455 113.080869,8.54882455 C113.149944,8.55189455 113.204181,8.55342955 113.244346,8.55342955 L113.575906,8.55342955 L113.575906,8.67315955 C113.551346,8.69464955 113.516553,8.71460455 113.472038,8.73302455 C113.427779,8.75144455 113.361006,8.76832955 113.271976,8.78367955 L113.271976,10.6302846 C113.385311,10.6640546 113.486876,10.7011504 113.575906,10.7408046 L113.575906,10.8559296 L112.585831,10.8559296 L112.585831,10.7408046 C112.625741,10.7162446 112.667954,10.6955221 112.712469,10.6786371 C112.756728,10.6617521 112.805336,10.6456346 112.857526,10.6302846 L112.857526,9.85203958 L112.521361,9.89808958 C112.456891,10.0055396 112.384491,10.1352471 112.304926,10.2872121 C112.224851,10.4391771 112.116121,10.5934446 111.977971,10.7500146 L111.835216,10.8559296 L111.314851,10.8559296 L111.314851,10.7408046 L111.572731,10.6302846 C111.710881,10.4859946 111.827541,10.3432396 111.922711,10.2020196 C112.017881,10.0610554 112.103841,9.94106958 112.180591,9.84282958 C112.109726,9.83054958 112.040906,9.80982708 111.973366,9.78066208 C111.905571,9.75149708 111.845194,9.71158707 111.791469,9.66093207 C111.737744,9.61027707 111.693741,9.5499004 111.659971,9.47903457 C111.626456,9.40842457 111.609571,9.3257904 111.609571,9.23036456 L111.609571,9.23036456 Z" id="Fill-63" fill="#000000" sketch:type="MSShapeGroup"></path>
                <path d="M2.72598098,8.8080093 C2.79966099,9.17026931 2.92553099,9.49568932 3.10384683,9.78401349 C3.281651,10.0728493 3.51829684,10.3030993 3.81276101,10.4750193 C4.10748102,10.6469393 4.47613686,10.7326435 4.91796104,10.7326435 C5.36029688,10.7326435 5.73151106,10.6469393 6.0326269,10.4750193 C6.33323107,10.3030993 6.57269108,10.0728493 6.75075108,9.78401349 C6.92881109,9.49568932 7.05468109,9.17026931 7.12836109,8.8080093 C7.2020411,8.44600513 7.23913693,8.07427928 7.23913693,7.69359927 C7.23913693,7.31291927 7.2020411,6.93812342 7.12836109,6.56997925 C7.05468109,6.20157924 6.92881109,5.87615923 6.75075108,5.59371922 C6.57269108,5.31127922 6.33323107,5.08102921 6.0326269,4.90271337 C5.73151106,4.7249092 5.36029688,4.63562337 4.91796104,4.63562337 C4.47613686,4.63562337 4.10748102,4.7249092 3.81276101,4.90271337 C3.51829684,5.08102921 3.281651,5.31127922 3.10384683,5.59371922 C2.92553099,5.87615923 2.79966099,6.20157924 2.72598098,6.56997925 C2.65230098,6.93812342 2.61546098,7.31291927 2.61546098,7.69359927 C2.61546098,8.07427928 2.65230098,8.44600513 2.72598098,8.8080093 M0.349800925,5.62134922 C0.583120931,5.00120921 0.914680939,4.47316919 1.34473678,4.03722918 C1.77428096,3.60128917 2.29004097,3.26358916 2.89176099,3.02412916 C3.493481,2.78466915 4.16888102,2.66468332 4.91796104,2.66468332 C5.66704106,2.66468332 6.34551107,2.78466915 6.95337109,3.02412916 C7.5612311,3.26358916 8.08006112,3.60128917 8.50986113,4.03722918 C8.93966114,4.47316919 9.27122115,5.00120921 9.50454115,5.62134922 C9.73760533,6.24148924 9.85452116,6.93223926 9.85452116,7.69359927 C9.85452116,8.45495929 9.73760533,9.14263931 9.50454115,9.75663933 C9.27122115,10.3706393 8.93966114,10.8956094 8.50986113,11.3312935 C8.08006112,11.7674894 7.5612311,12.1023752 6.95337109,12.3354394 C6.34551107,12.5685036 5.66704106,12.6851636 4.91796104,12.6851636 C4.16888102,12.6851636 3.493481,12.5685036 2.89176099,12.3354394 C2.29004097,12.1023752 1.77428096,11.7674894 1.34473678,11.3312935 C0.914680939,10.8956094 0.583120931,10.3706393 0.349800925,9.75663933 C0.11648092,9.14263931 7.67500019e-05,8.45495929 7.67500019e-05,7.69359927 C7.67500019e-05,6.93223926 0.11648092,6.24148924 0.349800925,5.62134922" id="Fill-65" fill="#000000" sketch:type="MSShapeGroup"></path>
                <path d="M13.7503001,10.0789382 C13.8667043,10.2815582 14.0173901,10.4473382 14.2015901,10.5762782 C14.3855343,10.7052182 14.5976201,10.8003882 14.8370801,10.8617882 C15.0765401,10.923444 15.3252101,10.9538882 15.5830901,10.9538882 C15.7672901,10.9538882 15.9607001,10.932654 16.1633202,10.8894182 C16.3659402,10.8464382 16.5498843,10.7788982 16.7159202,10.6867982 C16.8817002,10.5946982 17.0198502,10.472154 17.1303702,10.3183982 C17.2408902,10.1648982 17.2958943,9.97148816 17.2958943,9.73816816 C17.2958943,9.34546398 17.0352002,9.05048814 16.5133002,8.85400814 C15.9911443,8.65752813 15.2635543,8.46130396 14.3305301,8.26456812 C13.9495943,8.17860812 13.5781243,8.07755395 13.2161201,7.96063811 C12.8536042,7.84423394 12.5312542,7.69073394 12.2490701,7.5001381 C11.9663742,7.31005393 11.73945,7.07033809 11.56753,6.78175809 C11.3953542,6.49317808 11.30965,6.14012807 11.30965,5.72260806 C11.30965,5.10860804 11.42938,4.60512803 11.66884,4.21216802 C11.9083,3.81920801 12.2242542,3.509138 12.6174701,3.281958 C13.0101742,3.05477799 13.4522543,2.89513799 13.9437101,2.80303799 C14.4346543,2.71093798 14.9383901,2.66488798 15.4541501,2.66488798 C15.9699101,2.66488798 16.4700643,2.71400798 16.9551243,2.81224799 C17.4404402,2.91048799 17.8730544,3.07652383 18.2539902,3.309588 C18.6344144,3.542908 18.9506244,3.85297801 19.2026202,4.23979802 C19.4541044,4.62661803 19.6047902,5.11474804 19.6539102,5.70418806 L17.1669543,5.70418806 C17.1303702,5.20096388 16.9397743,4.86019387 16.5961902,4.68187803 C16.2520943,4.50407386 15.8468543,4.41478803 15.3804701,4.41478803 C15.2331101,4.41478803 15.0734701,4.42399803 14.9015501,4.44241803 C14.7293743,4.46083803 14.5728043,4.50074803 14.4318401,4.56214803 C14.2903643,4.62380386 14.1708901,4.71257803 14.0726501,4.8289822 C13.9741543,4.94615387 13.9252901,5.10272388 13.9252901,5.29894805 C13.9252901,5.53252389 14.0112501,5.72260806 14.1829143,5.86996806 C14.3548343,6.01732807 14.5792001,6.13705807 14.8552443,6.22915807 C15.1315443,6.32125807 15.4477543,6.40414808 15.8038743,6.47782808 C16.1602502,6.55150808 16.5225102,6.63132808 16.8906543,6.71728808 C17.2713343,6.80324809 17.6430602,6.90762809 18.0053202,7.03042809 C18.3673244,7.15322809 18.6896744,7.3159381 18.9723702,7.5185581 C19.2548102,7.72117811 19.4817344,7.97317395 19.6539102,8.27377812 C19.8255744,8.57489396 19.9117902,8.94610814 19.9117902,9.38818815 C19.9117902,10.0144682 19.7856644,10.5394382 19.5339244,10.9630982 C19.2821844,11.3867582 18.9539502,11.7275282 18.5487102,11.9854082 C18.1434702,12.2432882 17.6796444,12.4246741 17.1577443,12.5287982 C16.6358443,12.6329224 16.1047343,12.6853682 15.5646701,12.6853682 C15.0120701,12.6853682 14.4714943,12.6301082 13.9437101,12.5195882 C13.4154143,12.4090682 12.9457042,12.2248682 12.5345801,11.9669882 C12.1229442,11.7091082 11.7852442,11.3683382 11.52148,10.9446782 C11.2572042,10.5210182 11.1129142,9.98990816 11.08861,9.35134815 L13.5750543,9.35134815 C13.5750543,9.63404399 13.6333843,9.87631816 13.7503001,10.0789382" id="Fill-67" fill="#000000" sketch:type="MSShapeGroup"></path>
                <path d="M35.9828057,5.15163921 C35.6696657,4.8077992 35.1938157,4.63562337 34.5552557,4.63562337 C34.1377357,4.63562337 33.7910815,4.70674503 33.5147815,4.8477092 C33.2382257,4.98892921 33.0171857,5.16391921 32.8516615,5.37242338 C32.6856256,5.58169506 32.5687098,5.80273506 32.5016815,6.03579923 C32.4338856,6.26911924 32.3939756,6.47787924 32.3816956,6.66182342 L36.6369716,6.66182342 C36.5139157,5.99895923 36.2962016,5.49547922 35.9828057,5.15163921 M33.0263957,10.1618793 C33.4190998,10.5425593 33.9842357,10.7326435 34.7210357,10.7326435 C35.2490757,10.7326435 35.7034357,10.6011452 36.0841157,10.3368693 C36.4647957,10.0728493 36.6981157,9.79347933 36.7840757,9.49875932 L39.0865758,9.49875932 C38.7181758,10.6407993 38.1532958,11.4574194 37.3921916,11.9483635 C36.6303199,12.4398194 35.7095757,12.6851636 34.6289357,12.6851636 C33.8798557,12.6851636 33.2044557,12.5654336 32.6027356,12.3262294 C32.0010156,12.0865136 31.4911398,11.7457435 31.0741314,11.3039194 C30.6563556,10.8615835 30.3340056,10.3340552 30.1068256,9.71954349 C29.8796456,9.10579931 29.7660556,8.43014346 29.7660556,7.69359927 C29.7660556,6.98135926 29.8827156,6.31849507 30.1160356,5.70423923 C30.3490998,5.09023921 30.6806598,4.55938503 31.1107156,4.11090919 C31.5405156,3.66268917 32.0532056,3.30963917 32.6490415,3.05175916 C33.2443657,2.79387915 33.9044157,2.66468332 34.6289357,2.66468332 C35.4394157,2.66468332 36.1455157,2.82150915 36.7472357,3.13439333 C37.3489558,3.44778917 37.8432258,3.86837918 38.2300458,4.39641919 C38.6168658,4.92445921 38.8962358,5.52643505 39.0684116,6.20157924 C39.23982,6.87697925 39.3014758,7.58307927 39.2523558,8.31987929 L32.3816956,8.31987929 C32.4185356,9.16694348 32.6331798,9.78145516 33.0263957,10.1618793" id="Fill-69" fill="#000000" sketch:type="MSShapeGroup"></path>
                <path d="M43.2308457,8.8080093 C43.3045257,9.17026931 43.4303957,9.49568932 43.6087115,9.78401349 C43.7865157,10.0728493 44.0231615,10.3030993 44.3176257,10.4750193 C44.6123457,10.6469393 44.9810015,10.7326435 45.4228257,10.7326435 C45.8651616,10.7326435 46.2363757,10.6469393 46.5374916,10.4750193 C46.8380957,10.3030993 47.0775558,10.0728493 47.2556158,9.78401349 C47.4336758,9.49568932 47.5595458,9.17026931 47.6332258,8.8080093 C47.7069058,8.44600513 47.7440016,8.07427928 47.7440016,7.69359927 C47.7440016,7.31291927 47.7069058,6.93812342 47.6332258,6.56997925 C47.5595458,6.20157924 47.4336758,5.87615923 47.2556158,5.59371922 C47.0775558,5.31127922 46.8380957,5.08102921 46.5374916,4.90271337 C46.2363757,4.7249092 45.8651616,4.63562337 45.4228257,4.63562337 C44.9810015,4.63562337 44.6123457,4.7249092 44.3176257,4.90271337 C44.0231615,5.08102921 43.7865157,5.31127922 43.6087115,5.59371922 C43.4303957,5.87615923 43.3045257,6.20157924 43.2308457,6.56997925 C43.1571657,6.93812342 43.1203257,7.31291927 43.1203257,7.69359927 C43.1203257,8.07427928 43.1571657,8.44600513 43.2308457,8.8080093 M40.8546656,5.62134922 C41.0879856,5.00120921 41.4195456,4.47316919 41.8496015,4.03722918 C42.2791456,3.60128917 42.7949056,3.26358916 43.3966257,3.02412916 C43.9983457,2.78466915 44.6737457,2.66468332 45.4228257,2.66468332 C46.1719057,2.66468332 46.8503757,2.78466915 47.4582358,3.02412916 C48.0660958,3.26358916 48.5849258,3.60128917 49.0147258,4.03722918 C49.4445258,4.47316919 49.7760858,5.00120921 50.0094058,5.62134922 C50.24247,6.24148924 50.3593858,6.93223926 50.3593858,7.69359927 C50.3593858,8.45495929 50.24247,9.14263931 50.0094058,9.75663933 C49.7760858,10.3706393 49.4445258,10.8956094 49.0147258,11.3312935 C48.5849258,11.7674894 48.0660958,12.1023752 47.4582358,12.3354394 C46.8503757,12.5685036 46.1719057,12.6851636 45.4228257,12.6851636 C44.6737457,12.6851636 43.9983457,12.5685036 43.3966257,12.3354394 C42.7949056,12.1023752 42.2791456,11.7674894 41.8496015,11.3312935 C41.4195456,10.8956094 41.0879856,10.3706393 40.8546656,9.75663933 C40.6213456,9.14263931 40.5049414,8.45495929 40.5049414,7.69359927 C40.5049414,6.93223926 40.6213456,6.24148924 40.8546656,5.62134922" id="Fill-71" fill="#000000" sketch:type="MSShapeGroup"></path>
                <path d="M54.5407259,2.92284474 L54.5407259,4.24908477 L54.5959859,4.24908477 C54.9275459,3.69622893 55.3570901,3.29431475 55.885386,3.04257474 C56.4131702,2.79083474 56.953746,2.6647089 57.506346,2.6647089 C58.2060502,2.6647089 58.7801402,2.76013474 59.2283602,2.95021891 C59.6765802,3.14107058 60.0298861,3.40483475 60.2877661,3.74253476 C60.5456461,4.08023477 60.7267761,4.49161478 60.8311561,4.97641896 C60.9352803,5.46199064 60.9874703,5.99872898 60.9874703,6.588169 L60.9874703,12.445985 L58.372086,12.445985 L58.372086,7.06708901 C58.372086,6.28142482 58.2490302,5.69505481 58.0034302,5.30797897 C57.7578302,4.92141479 57.322146,4.72800478 56.695866,4.72800478 C55.983626,4.72800478 55.4676101,4.93983479 55.148586,5.3634948 C54.8290501,5.78689898 54.6696659,6.48404483 54.6696659,7.45416485 L54.6696659,12.445985 L52.05377,12.445985 L52.05377,2.92284474 L54.5407259,2.92284474 Z" id="Fill-73" fill="#000000" sketch:type="MSShapeGroup"></path>
                <mask id="mask-2" sketch:name="Clip 76" fill="white">
                    <use xlink:href="#path-1"></use>
                </mask>
                <g id="Clip-76"></g>
                <path d="M68.6633659,0 L66.1050325,0 L66.1050325,15.3500004 L68.6633659,15.3500004 L68.6633659,0 Z" id="Fill-75" fill="#D92F2F" sketch:type="MSShapeGroup" mask="url(#mask-2)"></path>
                <path d="M25.939147,8.18666687 L25.939147,9.52569857 C25.939147,9.96803441 26.0591328,10.2719644 26.2064928,10.4195803 C26.3538528,10.5669403 26.6485728,10.6406203 27.0906528,10.6406203 C27.2380128,10.6406203 27.378977,10.6344803 27.5143129,10.6222003 C27.649137,10.6101761 27.778077,10.5915003 27.9011329,10.5669403 L27.9011329,12.5931403 C27.6800929,12.6297245 27.4344928,12.6542845 27.1643328,12.6668203 C26.893917,12.6788445 26.6301528,12.6852403 26.3722728,12.6852403 C25.9670328,12.6852403 25.583027,12.6576103 25.2210228,12.6023503 C24.858507,12.5470903 24.5394828,12.4396403 24.2631828,12.2800003 C23.9868828,12.1203603 23.7686569,11.8929245 23.6090169,11.5984603 C23.4493769,11.3037403 23.3698127,10.9169203 23.3698127,10.4380003 L23.3808136,8.69833355 L25.939147,8.18666687 Z" id="Fill-77" fill="#000000" sketch:type="MSShapeGroup" mask="url(#mask-2)"></path>
                <path d="M28.4974804,2.5583334 L25.939147,2.5583334 L25.939147,0 L23.3808136,0 L23.3808136,2.5583334 L20.8224802,2.5583334 L20.8224802,5.11666679 L23.3808136,5.11666679 L23.3808136,7.41916685 L25.939147,6.90750017 L25.939147,5.11666679 L28.4974804,5.11666679 L28.4974804,2.5583334 Z" id="Fill-78" fill="#D92F2F" sketch:type="MSShapeGroup" mask="url(#mask-2)"></path>
            </g>
        </g>
    </g>
</svg>