<svg width="61" height="16" viewBox="0 0 61 16" xmlns="http://www.w3.org/2000/svg"><title>logo sign</title><g fill="none" fill-rule="evenodd"><path d="M2.726 8.808c.074.362.2.688.378.976.178.29.414.52.71.69.293.173.662.26 1.104.26.442 0 .814-.087 1.115-.26.3-.17.54-.4.718-.69.18-.288.305-.614.378-.976a5.714 5.714 0 0 0 0-2.238 2.867 2.867 0 0 0-.377-.976 2.1 2.1 0 0 0-.717-.69c-.3-.18-.673-.268-1.115-.268-.442 0-.81.09-1.105.267-.295.178-.53.408-.71.69a2.862 2.862 0 0 0-.377.977 5.713 5.713 0 0 0 0 2.238M.35 5.62c.233-.62.565-1.147.995-1.583.43-.436.945-.773 1.547-1.013.6-.24 1.277-.36 2.026-.36.75 0 1.428.12 2.035.36A4.44 4.44 0 0 1 8.51 4.037c.43.436.76.964.995 1.584.233.62.35 1.312.35 2.074 0 .76-.117 1.45-.35 2.063a4.472 4.472 0 0 1-.995 1.574c-.43.437-.95.772-1.557 1.005-.607.234-1.286.35-2.035.35-.75 0-1.425-.116-2.026-.35a4.342 4.342 0 0 1-1.547-1.004A4.47 4.47 0 0 1 .35 9.758C.116 9.143 0 8.455 0 7.694 0 6.932.116 6.24.35 5.62M13.75 10.08c.117.202.267.367.452.496.184.13.396.224.635.286.24.06.488.092.746.092.184 0 .378-.02.58-.065.203-.044.387-.11.553-.203.166-.092.304-.215.414-.37a.968.968 0 0 0 .166-.58c0-.392-.26-.687-.783-.883-.522-.196-1.25-.393-2.182-.59a12.77 12.77 0 0 1-1.114-.303 3.783 3.783 0 0 1-.967-.46c-.284-.19-.51-.43-.682-.718-.173-.29-.258-.642-.258-1.06 0-.613.12-1.117.36-1.51.238-.393.554-.703.947-.93a4.155 4.155 0 0 1 1.327-.48c.49-.09.994-.137 1.51-.137s1.016.05 1.5.147c.486.098.92.265 1.3.498.38.233.697.543.95.93.25.387.4.875.45 1.464h-2.487c-.037-.503-.227-.844-.57-1.022-.345-.178-.75-.267-1.217-.267-.147 0-.307.01-.478.027-.173.02-.33.06-.47.12a.97.97 0 0 0-.36.267c-.098.116-.147.273-.147.47 0 .233.086.423.258.57.172.147.396.267.672.36.277.09.593.174.95.248.355.074.718.153 1.086.24.38.085.753.19 1.115.312.362.123.685.286.967.49.283.2.51.453.682.754.172.3.258.672.258 1.114 0 .626-.126 1.15-.378 1.575a3.02 3.02 0 0 1-.985 1.022c-.407.258-.87.44-1.392.544a8.123 8.123 0 0 1-3.214-.01 4.274 4.274 0 0 1-1.41-.553c-.41-.258-.75-.6-1.013-1.022-.263-.424-.407-.955-.43-1.594h2.485c0 .284.058.526.175.73M35.983 5.152c-.313-.344-.79-.516-1.428-.516-.417 0-.764.07-1.04.212a1.98 1.98 0 0 0-.663.524c-.166.21-.283.43-.35.664a2.99 2.99 0 0 0-.12.626h4.255c-.123-.663-.34-1.167-.654-1.51m-2.957 5.01c.393.38.958.57 1.695.57.53 0 .983-.13 1.364-.395.38-.264.614-.544.7-.838h2.303c-.37 1.14-.934 1.957-1.695 2.448-.762.492-1.682.737-2.763.737-.75 0-1.426-.12-2.027-.36a4.214 4.214 0 0 1-1.53-1.02 4.597 4.597 0 0 1-.966-1.585 5.797 5.797 0 0 1-.34-2.026c0-.713.116-1.376.35-1.99a4.663 4.663 0 0 1 .994-1.593c.43-.447.943-.8 1.54-1.058a4.93 4.93 0 0 1 1.98-.387c.81 0 1.516.157 2.117.47a4.23 4.23 0 0 1 1.483 1.26c.387.53.666 1.13.838 1.807.172.675.233 1.38.184 2.118h-6.87c.037.847.25 1.46.644 1.842M43.23 8.808c.075.362.2.688.38.976.177.29.413.52.708.69.294.173.663.26 1.105.26.442 0 .813-.087 1.114-.26.3-.17.54-.4.72-.69.177-.288.303-.614.376-.976a5.714 5.714 0 0 0 0-2.238 2.867 2.867 0 0 0-.377-.976 2.1 2.1 0 0 0-.72-.69c-.3-.18-.67-.268-1.113-.268-.442 0-.81.09-1.105.267-.295.178-.53.408-.71.69a2.862 2.862 0 0 0-.377.977 5.713 5.713 0 0 0 0 2.238M40.856 5.62c.233-.62.565-1.147.995-1.583.43-.436.945-.773 1.547-1.013.6-.24 1.277-.36 2.026-.36.75 0 1.427.12 2.035.36a4.44 4.44 0 0 1 1.557 1.013c.43.436.76.964.994 1.584.232.62.35 1.312.35 2.074 0 .76-.118 1.45-.35 2.063a4.472 4.472 0 0 1-.995 1.574c-.43.437-.95.772-1.557 1.005-.608.234-1.286.35-2.035.35-.75 0-1.425-.116-2.026-.35a4.342 4.342 0 0 1-1.547-1.004 4.47 4.47 0 0 1-.995-1.573c-.234-.614-.35-1.302-.35-2.063 0-.762.116-1.453.35-2.073M54.54 2.923V4.25h.056c.332-.554.76-.956 1.29-1.207a3.728 3.728 0 0 1 1.62-.378c.7 0 1.274.095 1.722.285.45.19.802.455 1.06.793.258.337.44.75.543 1.233.105.486.157 1.023.157 1.612v5.858h-2.615v-5.38c0-.785-.123-1.37-.37-1.758-.244-.387-.68-.58-1.306-.58-.712 0-1.228.212-1.547.635-.32.424-.48 1.12-.48 2.09v4.993h-2.616V2.923h2.487zM25.94 8.187v1.34c0 .44.12.745.266.893.148.147.443.22.885.22.148 0 .29-.006.424-.018.135-.012.264-.03.387-.055v2.026c-.22.037-.466.06-.736.074-.27.012-.534.018-.792.018-.405 0-.79-.027-1.15-.083a2.713 2.713 0 0 1-.96-.322 1.71 1.71 0 0 1-.653-.682c-.16-.294-.24-.68-.24-1.16l.01-1.74 2.56-.51z" fill="#000"/><path d="M28.497 2.558H25.94V0h-2.56v2.558h-2.558v2.56h2.56v2.3l2.557-.51v-1.79h2.557v-2.56z" fill="#D92F2F"/></g></svg>