<svg width="273" height="60" viewBox="0 0 273 60" xmlns="http://www.w3.org/2000/svg"><title>Group</title><g fill="none" fill-rule="evenodd"><path d="M0 0h272.727v60H0V0z" fill="#06F"/><path d="M17.455 28.632c0 8.13 5.616 14.492 14.216 14.492 4.91 0 8.366-2.043 10.723-4.4l-2.082-2.787c-2.237 2.238-5.418 3.613-8.52 3.613-6.442 0-10.33-5.066-10.33-10.957 0-5.852 3.81-10.604 10.25-10.604 2.867 0 5.97 1.217 8.012 3.023l1.964-2.906c-2.67-2.553-6.56-3.652-10.133-3.652-8.247 0-14.098 6.126-14.098 14.177zm32.56 14.02h3.77V26.04h6.952v-3.26H43.104v3.26h6.912v16.612zm13.635 7.855h3.81v-9.033c0-1.02-.157-1.728-.157-1.728h.078c1.376 2.12 3.653 3.378 6.167 3.378 5.223 0 8.993-4.085 8.993-10.408 0-6.165-3.338-10.407-8.718-10.407-2.906 0-5.42 1.334-6.677 3.73h-.078s.118-.668.118-1.492V22.78H63.65v27.727zm3.692-17.712c0-5.027 2.75-7.148 5.734-7.148 3.3 0 5.616 2.79 5.616 7.11 0 4.515-2.592 7.068-5.734 7.068-3.653 0-5.616-3.496-5.616-7.03zm18.342-.118c0 6.048 4.792 10.447 10.722 10.447 5.89 0 10.682-4.4 10.682-10.447 0-6.01-4.79-10.368-10.72-10.368-5.892 0-10.684 4.358-10.684 10.367zm3.888 0c0-4.124 3.064-7.07 6.834-7.07 3.73 0 6.833 2.946 6.833 7.07 0 4.163-3.103 7.148-6.834 7.148-3.77 0-6.834-2.985-6.834-7.148zm30.323-12.174c3.064 0 5.813-1.807 5.813-5.027v-.59h-3.024v.51c0 1.768-1.414 2.632-2.79 2.632-1.373 0-2.748-.864-2.748-2.592v-.55h-3.063v.59c0 3.22 2.788 5.027 5.812 5.027zm-8.758 22.15h3.653l8.6-11.86c.63-.944 1.61-2.28 1.73-2.632h.077c0 .315-.118 1.69-.118 2.632v11.86h3.69V22.78h-3.69l-8.562 11.86c-.668.943-1.61 2.318-1.767 2.67h-.078c.04-.195.118-1.61.118-2.67V22.78h-3.653v19.872zm43.83 0h3.887v-24.35h14.06v24.35h3.887V14.925h-21.834v27.726zm26.076.196c5.852-.315 8.13-4.95 8.13-13.943v-2.985h5.85v16.73h3.81V22.78H185.52v6.127c0 7.187-1.57 10.093-4.477 10.525v3.417zm24.227-.198h3.81v-8.404h3.612c.707 5.184 4.91 8.876 10.172 8.876 5.734 0 10.33-4.4 10.33-10.447 0-6.01-4.596-10.368-10.37-10.368-5.223 0-9.425 3.65-10.132 8.796h-3.613V22.78h-3.81v19.872zm11.114-9.975c0-4.124 2.867-7.07 6.48-7.07 3.574 0 6.44 2.946 6.44 7.07 0 4.163-2.866 7.148-6.44 7.148-3.613 0-6.48-2.985-6.48-7.148zm20.108.04c0 5.97 4.36 10.407 10.643 10.407 3.102 0 6.126-1.257 7.933-3.18l-1.532-2.79c-1.532 1.61-3.927 2.67-6.127 2.67-4.124 0-7.03-3.102-7.03-7.147s2.906-7.07 6.912-7.07c2.08 0 4.163.944 5.498 2.28l1.806-2.672c-1.885-2.003-4.83-2.906-7.46-2.906-6.246 0-10.644 4.515-10.644 10.406z" fill="#FFF"/></g></svg>